<?xml version="1.0" encoding="iso-8859-1"?>
<!-- Generator: Adobe Illustrator 18.0.0, SVG Export Plug-In . SVG Version: 6.00 Build 0)  -->
<!DOCTYPE svg PUBLIC "-//W3C//DTD SVG 1.1//EN" "http://www.w3.org/Graphics/SVG/1.1/DTD/svg11.dtd">
<svg version="1.1" id="Capa_1" xmlns="http://www.w3.org/2000/svg" xmlns:xlink="http://www.w3.org/1999/xlink" x="0px" y="0px"
	 viewBox="0 0 310.72 310.72" style="enable-background:new 0 0 310.72 310.72;" xml:space="preserve">
<g>
	<path d="M102.641,41.22c-38,0-68.805,35.593-68.805,79.5c0,37.139,22.043,68.325,51.835,77.057l-4.754,8.301
		c-0.934,1.631-0.929,3.637,0.014,5.264c0.943,1.627,2.681,2.628,4.561,2.628h2.107c-0.015,8.525-0.129,72.598-0.145,81.723
		c-0.015,8.284,6.69,15.012,14.974,15.026c0.009,0,0.018,0,0.027,0c8.272,0,14.984-6.698,14.999-14.974
		c0.016-9.107,0.13-73.23,0.145-81.776h1.816c1.88,0,3.618-1.001,4.561-2.628c0.943-1.627,0.948-3.632,0.014-5.264l-4.704-8.215
		c29.955-8.602,52.159-39.871,52.159-77.144C171.446,76.814,140.641,41.22,102.641,41.22z"/>
	<path d="M276.883,79.5c0-43.907-30.805-79.5-68.805-79.5C183.116,0,161.26,15.36,149.2,38.346
		c5.645,4.04,10.915,8.846,15.704,14.38c15.826,18.286,24.542,42.434,24.542,67.994c0,11.64-1.83,22.887-5.213,33.351
		c2.242,0.957,4.531,1.799,6.876,2.486l-4.754,8.301c-0.934,1.631-0.929,3.637,0.014,5.264c0.943,1.627,2.681,2.628,4.561,2.628
		h2.107c-0.015,8.524-0.129,72.598-0.145,81.723c-0.015,8.284,6.69,15.012,14.974,15.026c0.009,0,0.018,0,0.027,0
		c8.271,0,14.984-6.698,14.999-14.974c0.016-9.107,0.13-73.23,0.145-81.776h1.816c1.88,0,3.618-1.001,4.561-2.628
		c0.943-1.627,0.948-3.632,0.014-5.264l-4.704-8.215C254.679,148.042,276.883,116.773,276.883,79.5z"/>
</g>
<g>
</g>
<g>
</g>
<g>
</g>
<g>
</g>
<g>
</g>
<g>
</g>
<g>
</g>
<g>
</g>
<g>
</g>
<g>
</g>
<g>
</g>
<g>
</g>
<g>
</g>
<g>
</g>
<g>
</g>
</svg>
