<?xml version="1.0" encoding="iso-8859-1"?>
<!-- Generator: Adobe Illustrator 18.0.0, SVG Export Plug-In . SVG Version: 6.00 Build 0)  -->
<!DOCTYPE svg PUBLIC "-//W3C//DTD SVG 1.1//EN" "http://www.w3.org/Graphics/SVG/1.1/DTD/svg11.dtd">
<svg version="1.1" id="Capa_1" xmlns="http://www.w3.org/2000/svg" xmlns:xlink="http://www.w3.org/1999/xlink" x="0px" y="0px"
	 viewBox="0 0 270.534 270.534" style="enable-background:new 0 0 270.534 270.534;" xml:space="preserve">
<path d="M269.477,98.857c-1.467-3.697-4.343-6.661-7.995-8.239L133.506,35.335l1.19-2.754c4.38-10.14-0.289-21.911-10.43-26.291
	c-10.136-4.377-21.91,0.29-26.291,10.43l-1.189,2.753L61.216,4.108c-3.652-1.578-7.782-1.641-11.479-0.173
	c-3.697,1.467-6.661,4.343-8.239,7.995L2.112,103.107c-1.577,3.652-1.64,7.781-0.173,11.479c1.467,3.697,4.343,6.661,7.995,8.239
	l35.569,15.365L1.645,239.721c-4.38,10.14,0.289,21.911,10.43,26.291c2.584,1.116,5.273,1.645,7.921,1.645
	c7.738,0,15.106-4.519,18.37-12.074l43.858-101.53l127.976,55.282c1.938,0.837,3.956,1.233,5.94,1.233
	c5.804,0,11.33-3.389,13.778-9.056l39.386-91.176C270.881,106.684,270.944,102.555,269.477,98.857z M35.601,101.233L63.09,37.597
	l21.799,9.417L57.4,110.649L35.601,101.233z M208.325,175.845L94.12,126.511l27.489-63.636l114.205,49.334L208.325,175.845z"/>
<g>
</g>
<g>
</g>
<g>
</g>
<g>
</g>
<g>
</g>
<g>
</g>
<g>
</g>
<g>
</g>
<g>
</g>
<g>
</g>
<g>
</g>
<g>
</g>
<g>
</g>
<g>
</g>
<g>
</g>
</svg>
