<?xml version="1.0" encoding="iso-8859-1"?>
<!-- Generator: Adobe Illustrator 18.0.0, SVG Export Plug-In . SVG Version: 6.00 Build 0)  -->
<!DOCTYPE svg PUBLIC "-//W3C//DTD SVG 1.1//EN" "http://www.w3.org/Graphics/SVG/1.1/DTD/svg11.dtd">
<svg version="1.1" id="Capa_1" xmlns="http://www.w3.org/2000/svg" xmlns:xlink="http://www.w3.org/1999/xlink" x="0px" y="0px"
	 viewBox="0 0 289.087 289.087" style="enable-background:new 0 0 289.087 289.087;" xml:space="preserve">
<path d="M277.726,270.107L215.104,42.533c3.075-4.389,4.885-9.728,4.885-15.494C219.989,12.106,207.883,0,192.95,0
	c-14.933,0-27.039,12.106-27.039,27.039c0,3.154,0.545,6.179,1.538,8.993L107.842,95.64l-14.206,14.206
	c-17.497-21.102-27.824-44.722-30.03-66.115c-0.838-8.121-9.06-13.221-16.638-10.564c-7.233,2.537-13.709,6.476-19.115,11.882
	C-0.135,73.037,6.207,134.656,48.123,176.572c41.9,41.9,103.522,48.27,131.522,20.27c5.406-5.406,9.345-11.882,11.882-19.115
	c2.68-7.641-2.487-15.805-10.564-16.638c-21.393-2.206-45.013-12.533-66.115-30.03l14.206-14.207l33.175-33.175l-12.849,46.693
	c9.404,4.996,19.004,8.434,28.343,10.077l16.604-60.34l49.25,178.98h-98.499l7.459-27.106c-10.597,2.065-20.992,2.34-31.472,1.294
	l-10.135,36.832c-1.241,4.513-0.305,9.348,2.532,13.071c2.837,3.723,7.25,5.908,11.931,5.908h137.87
	c4.681,0,9.094-2.186,11.931-5.908C278.032,279.455,278.967,274.62,277.726,270.107z"/>
<g>
</g>
<g>
</g>
<g>
</g>
<g>
</g>
<g>
</g>
<g>
</g>
<g>
</g>
<g>
</g>
<g>
</g>
<g>
</g>
<g>
</g>
<g>
</g>
<g>
</g>
<g>
</g>
<g>
</g>
</svg>
