<?xml version="1.0" encoding="iso-8859-1"?>
<!-- Generator: Adobe Illustrator 18.0.0, SVG Export Plug-In . SVG Version: 6.00 Build 0)  -->
<!DOCTYPE svg PUBLIC "-//W3C//DTD SVG 1.1//EN" "http://www.w3.org/Graphics/SVG/1.1/DTD/svg11.dtd">
<svg version="1.1" id="Capa_1" xmlns="http://www.w3.org/2000/svg" xmlns:xlink="http://www.w3.org/1999/xlink" x="0px" y="0px"
	 viewBox="0 0 300.182 300.182" style="enable-background:new 0 0 300.182 300.182;" xml:space="preserve">
<g>
	<path d="M165.091,100.418c-4.756,1.497-9.796,2.311-15,2.311c-5.204,0-10.244-0.814-15-2.311v58.094v17.5h-1.842
		c-8.284,0-15,6.716-15,15c0,8.284,6.716,15,15,15h33.684c8.284,0,15-6.716,15-15c0-8.284-6.716-15-15-15h-1.842v-17.5V100.418z"/>
	<path d="M75.933,176.012h-1.842v-75.931c-5.027-1.706-9.717-4.19-13.912-7.317c-4.794,3.574-10.235,6.305-16.088,7.997v75.251
		h-1.842c-8.284,0-15,6.716-15,15c0,8.284,6.716,15,15,15h33.684c8.284,0,15-6.716,15-15
		C90.933,182.728,84.217,176.012,75.933,176.012z"/>
	<path d="M257.933,176.012h-1.842v-75.251c-5.853-1.692-11.294-4.424-16.088-7.997c-4.195,3.127-8.884,5.611-13.912,7.317v75.931
		h-1.842c-8.284,0-15,6.716-15,15c0,8.284,6.716,15,15,15h33.684c8.284,0,15-6.716,15-15
		C272.933,182.728,266.217,176.012,257.933,176.012z"/>
	<path d="M300.16,52.496c-0.355-6.369-6.724-13.325-17.208-20C257.806,16.483,207.749,2.173,150.091,2.173
		c-57.658,0-107.715,14.31-132.861,30.323c-10.483,6.675-16.852,13.631-17.208,20C0.008,52.734,0,53.451,0,53.451
		c0.506,16.254,13.832,29.278,30.208,29.278c15.366,0,28.045-11.466,29.971-26.307c1.926,14.841,14.605,26.307,29.971,26.307
		c15.366,0,28.045-11.466,29.971-26.307c1.926,14.841,14.605,26.307,29.97,26.307c15.366,0,28.045-11.466,29.971-26.307
		c1.926,14.841,14.605,26.307,29.97,26.307c15.366,0,28.045-11.466,29.971-26.307c1.926,14.841,14.605,26.307,29.97,26.307
		c16.377,0,29.703-13.024,30.209-29.278C300.182,53.451,300.173,52.734,300.16,52.496z"/>
	<path d="M197.091,268.008h-27v-44.651c-1.04,0.1-2.092,0.155-3.158,0.155h-33.684c-1.066,0-2.119-0.055-3.158-0.155v44.651h-27
		c-8.284,0-15,6.716-15,15c0,8.284,6.716,15,15,15h94c8.284,0,15-6.716,15-15C212.091,274.724,205.375,268.008,197.091,268.008z"/>
</g>
<g>
</g>
<g>
</g>
<g>
</g>
<g>
</g>
<g>
</g>
<g>
</g>
<g>
</g>
<g>
</g>
<g>
</g>
<g>
</g>
<g>
</g>
<g>
</g>
<g>
</g>
<g>
</g>
<g>
</g>
</svg>
