<?xml version="1.0" encoding="iso-8859-1"?>
<!-- Generator: Adobe Illustrator 18.0.0, SVG Export Plug-In . SVG Version: 6.00 Build 0)  -->
<!DOCTYPE svg PUBLIC "-//W3C//DTD SVG 1.1//EN" "http://www.w3.org/Graphics/SVG/1.1/DTD/svg11.dtd">
<svg version="1.1" id="Capa_1" xmlns="http://www.w3.org/2000/svg" xmlns:xlink="http://www.w3.org/1999/xlink" x="0px" y="0px"
	 viewBox="0 0 288.998 288.998" style="enable-background:new 0 0 288.998 288.998;" xml:space="preserve">
<path d="M274.883,35.327l9.721-9.721c5.858-5.858,5.858-15.356,0-21.213c-5.857-5.858-15.355-5.858-21.213,0l-74.605,74.605
	c-21.739-14.088-48.238-14.024-64.039,1.777c-8.622,8.622-12.556,20.429-12.062,32.91c0.193,4.886-2.046,9.551-5.979,12.456
	c-3.933,2.905-9.048,3.669-13.662,2.049c-27.794-9.758-56.618-6.011-75.219,12.589C-10.56,169.164-4.38,221.363,31.627,257.371
	c36.007,36.007,88.207,42.186,116.591,13.802c18.601-18.601,22.348-47.425,12.589-75.219c-1.619-4.612-0.85-9.726,2.054-13.658
	c2.904-3.932,7.566-6.176,12.451-5.983c12.481,0.494,24.288-3.44,32.91-12.062c15.801-15.801,15.865-42.3,1.777-64.04l43.67-43.67
	l6.79,6.79c2.929,2.929,6.768,4.394,10.606,4.394c3.839,0,7.678-1.465,10.607-4.394c5.858-5.857,5.858-15.355,0-21.213
	L274.883,35.327z M112.913,221.691c-12.594,12.594-33.013,12.594-45.607,0c-12.594-12.594-12.594-33.013,0-45.607
	c12.594-12.594,33.013-12.594,45.607,0C125.507,188.678,125.507,209.097,112.913,221.691z"/>
<g>
</g>
<g>
</g>
<g>
</g>
<g>
</g>
<g>
</g>
<g>
</g>
<g>
</g>
<g>
</g>
<g>
</g>
<g>
</g>
<g>
</g>
<g>
</g>
<g>
</g>
<g>
</g>
<g>
</g>
</svg>
