<?xml version="1.0" encoding="iso-8859-1"?>
<!-- Generator: Adobe Illustrator 18.0.0, SVG Export Plug-In . SVG Version: 6.00 Build 0)  -->
<!DOCTYPE svg PUBLIC "-//W3C//DTD SVG 1.1//EN" "http://www.w3.org/Graphics/SVG/1.1/DTD/svg11.dtd">
<svg version="1.1" id="Capa_1" xmlns="http://www.w3.org/2000/svg" xmlns:xlink="http://www.w3.org/1999/xlink" x="0px" y="0px"
	 viewBox="0 0 295 295" style="enable-background:new 0 0 295 295;" xml:space="preserve">
<g>
	<path d="M135.539,65.416c0-39.664-29.88-65.416-63-65.416c-34.794,0-63,28.206-63,63v6.5H131.55
		C133.237,67.704,132.371,68.584,135.539,65.416z"/>
	<path d="M58.058,260.276c-0.178-0.178-0.345-0.364-0.518-0.545V280c0,8.284,6.716,15,15,15c8.284,0,15-6.716,15-15v-10.863
		C76.859,271.306,65.83,268.05,58.058,260.276z"/>
	<path d="M57.539,214.861c0.174-0.182,0.341-0.368,0.519-0.546l29.481-29.48v-17.645c9.833-2.403,18.755-7.113,26.172-13.526
		c-6.084-17.495-6.141-36.631-0.194-54.163H9.539v6.5c0,29.623,20.451,54.457,48,61.189V214.861z"/>
	<path d="M267.008,51.327c-12.302-12.302-28.425-18.452-44.548-18.452c-16.123,0-32.246,6.151-44.548,18.452l-4.596,4.596
		l89.096,89.095l4.596-4.596C291.611,115.819,291.611,75.93,267.008,51.327z"/>
	<path d="M152.103,77.136l-4.596,4.596c-20.947,20.947-24.046,52.968-9.325,77.208c-8.052,8.052-60.812,60.811-67.749,67.748
		c-5.858,5.857-5.858,15.355,0,21.213c5.856,5.858,15.354,5.859,21.213,0c6.471-6.471,60.856-60.856,67.749-67.748
		c10.005,6.076,21.329,9.127,32.66,9.127c16.123,0,32.246-6.151,44.548-18.452l4.596-4.596
		C239.438,164.471,153.4,78.432,152.103,77.136z"/>
</g>
<g>
</g>
<g>
</g>
<g>
</g>
<g>
</g>
<g>
</g>
<g>
</g>
<g>
</g>
<g>
</g>
<g>
</g>
<g>
</g>
<g>
</g>
<g>
</g>
<g>
</g>
<g>
</g>
<g>
</g>
</svg>
