<?xml version="1.0" encoding="iso-8859-1"?>
<!-- Generator: Adobe Illustrator 18.0.0, SVG Export Plug-In . SVG Version: 6.00 Build 0)  -->
<!DOCTYPE svg PUBLIC "-//W3C//DTD SVG 1.1//EN" "http://www.w3.org/Graphics/SVG/1.1/DTD/svg11.dtd">
<svg version="1.1" id="Capa_1" xmlns="http://www.w3.org/2000/svg" xmlns:xlink="http://www.w3.org/1999/xlink" x="0px" y="0px"
	 viewBox="0 0 299.807 299.807" style="enable-background:new 0 0 299.807 299.807;" xml:space="preserve">
<g>
	<path d="M107.667,177.15l-9.339-4.371c-3.308-1.548-5.421-4.871-5.421-8.524V148.29c0-4.179-2.739-7.918-6.767-9.032
		c-2.879-0.796-6.917-1.403-12.538-1.403c-5.622,0-9.66,0.607-12.538,1.403c-4.028,1.114-6.767,4.853-6.767,9.032v15.964
		c0,3.652-2.113,6.975-5.421,8.523l-9.339,4.371c-3.308,1.549-5.421,4.871-5.421,8.524v99.403c0,3.674,2.124,7.034,5.471,8.548
		c5.95,2.691,16.958,6.183,34.015,6.183s28.065-3.492,34.015-6.183c3.347-1.514,5.471-4.874,5.471-8.548v-99.403
		C113.089,182.02,110.976,178.698,107.667,177.15z"/>
	<path d="M274.237,177.15l-9.338-4.371c-3.308-1.548-5.422-4.871-5.422-8.524V148.29c0-4.179-2.739-7.918-6.767-9.032
		c-2.879-0.796-6.917-1.403-12.538-1.403c-5.622,0-9.66,0.607-12.538,1.403c-4.028,1.114-6.767,4.853-6.767,9.032v15.964
		c0,3.652-2.113,6.975-5.421,8.523l-9.339,4.371c-3.308,1.549-5.421,4.871-5.421,8.524v99.403c0,3.674,2.124,7.034,5.471,8.548
		c5.95,2.691,16.958,6.183,34.015,6.183s28.065-3.492,34.015-6.183c3.347-1.514,5.471-4.874,5.471-8.548v-99.403
		C279.659,182.02,277.545,178.698,274.237,177.15z"/>
	<path d="M187.561,39.294l-9.339-4.371c-3.308-1.548-5.422-4.871-5.422-8.524V10.435c0-4.179-2.739-7.918-6.767-9.032
		C163.155,0.607,159.117,0,153.496,0c-5.622,0-9.66,0.607-12.538,1.403c-4.028,1.114-6.767,4.853-6.767,9.032v15.964
		c0,3.653-2.113,6.975-5.421,8.524l-9.339,4.371c-3.308,1.549-5.421,4.871-5.421,8.524v99.403c0,3.674,2.124,7.034,5.471,8.548
		c5.95,2.691,16.958,6.183,34.015,6.183s28.065-3.492,34.015-6.183c3.347-1.514,5.471-4.874,5.471-8.548V47.818
		C192.982,44.165,190.869,40.843,187.561,39.294z"/>
	<circle cx="49.375" cy="66.493" r="29.227"/>
</g>
<g>
</g>
<g>
</g>
<g>
</g>
<g>
</g>
<g>
</g>
<g>
</g>
<g>
</g>
<g>
</g>
<g>
</g>
<g>
</g>
<g>
</g>
<g>
</g>
<g>
</g>
<g>
</g>
<g>
</g>
</svg>
