<?xml version="1.0" encoding="iso-8859-1"?>
<!-- Generator: Adobe Illustrator 18.0.0, SVG Export Plug-In . SVG Version: 6.00 Build 0)  -->
<!DOCTYPE svg PUBLIC "-//W3C//DTD SVG 1.1//EN" "http://www.w3.org/Graphics/SVG/1.1/DTD/svg11.dtd">
<svg version="1.1" id="Capa_1" xmlns="http://www.w3.org/2000/svg" xmlns:xlink="http://www.w3.org/1999/xlink" x="0px" y="0px"
	 viewBox="0 0 287.097 287.097" style="enable-background:new 0 0 287.097 287.097;" xml:space="preserve">
<g>
	<path d="M282.152,196.904c-3.958-3.172-9.465-3.791-14.031-1.579c-37.804,18.32-57.982,7.697-74.196-0.84
		c-7.638-4.021-14.852-7.819-22.705-7.819c-10.411,0-20.007,3.535-27.671,9.456c-7.664-5.921-17.26-9.456-27.671-9.456
		c-7.854,0-15.448,3.146-22.705,7.819c-34.305,22.09-66.713,4.467-74.196,0.841c-4.565-2.213-10.073-1.594-14.031,1.578
		c-3.96,3.175-5.763,8.418-4.594,13.355c15.118,63.882,98.888,67.118,115.526,67.118c10.411,0,20.007-3.535,27.671-9.456
		c7.664,5.921,17.26,9.456,27.671,9.456c16.639,0,100.408-3.236,115.526-67.117C287.915,205.322,286.112,200.078,282.152,196.904z"
		/>
	<path d="M39.45,118.246v66.246c4.946,1.609,10.922,2.923,17.465,2.923c4.319,0,8.48-0.563,12.535-1.688v-53.503
		c3.262,0.535,6.605,0.826,10.016,0.826c34.002,0,61.665-27.663,61.665-61.665S113.468,9.72,79.466,9.72
		c-34.002,0-61.665,27.663-61.665,61.665C17.801,90.125,26.214,106.927,39.45,118.246z M79.466,39.72
		c17.46,0,31.665,14.205,31.665,31.665S96.926,103.05,79.466,103.05S47.801,88.845,47.801,71.385S62.006,39.72,79.466,39.72z"/>
</g>
<g>
</g>
<g>
</g>
<g>
</g>
<g>
</g>
<g>
</g>
<g>
</g>
<g>
</g>
<g>
</g>
<g>
</g>
<g>
</g>
<g>
</g>
<g>
</g>
<g>
</g>
<g>
</g>
<g>
</g>
</svg>
