<?xml version="1.0" encoding="iso-8859-1"?>
<!-- Generator: Adobe Illustrator 18.0.0, SVG Export Plug-In . SVG Version: 6.00 Build 0)  -->
<!DOCTYPE svg PUBLIC "-//W3C//DTD SVG 1.1//EN" "http://www.w3.org/Graphics/SVG/1.1/DTD/svg11.dtd">
<svg version="1.1" id="Capa_1" xmlns="http://www.w3.org/2000/svg" xmlns:xlink="http://www.w3.org/1999/xlink" x="0px" y="0px"
	 viewBox="0 0 280.193 280.193" style="enable-background:new 0 0 280.193 280.193;" xml:space="preserve">
<g>
	<path d="M253.226,26.967c-27.88-27.88-69.18-34.135-103.1-18.798l121.898,121.898C287.36,96.146,281.106,54.847,253.226,26.967z"/>
	<path d="M113.228,145.752L4.394,254.586c-5.858,5.857-5.858,15.355,0,21.213c5.858,5.858,15.355,5.858,21.213,0l108.834-108.835
		c26.991,19.391,62.096,22.414,91.62,9.065L104.163,54.132C90.814,83.656,93.836,118.76,113.228,145.752z"/>
	<path d="M131.795,14.588c-5.857-5.857-15.355-5.857-21.213,0c-5.858,5.858-5.858,15.356,0,21.213L244.391,169.61
		c5.858,5.859,15.355,5.858,21.213,0c5.858-5.857,5.858-15.355,0-21.213L131.795,14.588z"/>
</g>
<g>
</g>
<g>
</g>
<g>
</g>
<g>
</g>
<g>
</g>
<g>
</g>
<g>
</g>
<g>
</g>
<g>
</g>
<g>
</g>
<g>
</g>
<g>
</g>
<g>
</g>
<g>
</g>
<g>
</g>
</svg>
