<?xml version="1.0" encoding="iso-8859-1"?>
<!-- Generator: Adobe Illustrator 18.0.0, SVG Export Plug-In . SVG Version: 6.00 Build 0)  -->
<!DOCTYPE svg PUBLIC "-//W3C//DTD SVG 1.1//EN" "http://www.w3.org/Graphics/SVG/1.1/DTD/svg11.dtd">
<svg version="1.1" id="Capa_1" xmlns="http://www.w3.org/2000/svg" xmlns:xlink="http://www.w3.org/1999/xlink" x="0px" y="0px"
	 viewBox="0 0 286.935 286.935" style="enable-background:new 0 0 286.935 286.935;" xml:space="preserve">
<path d="M274.904,247.581c-47.122-32.348-86.209-70.783-116.436-112.522V97.992h45.22c5.485,0,10.825-1.766,15.228-5.037
	l33.477-24.868c1.814-1.347,2.883-3.473,2.883-5.732c0-2.259-1.069-4.385-2.883-5.733l-33.477-24.868
	c-4.403-3.271-9.743-5.037-15.228-5.037h-45.22V15c0-8.284-6.716-15-15-15s-15,6.716-15,15v120.054
	C98.24,176.795,59.151,215.231,12.028,247.581c-4.542,3.118-6.809,8.628-5.779,14.04c1.029,5.412,5.16,9.704,10.529,10.938
	c83.367,19.169,170.009,19.169,253.375,0c5.37-1.235,9.503-5.524,10.533-10.937C281.716,256.209,279.447,250.699,274.904,247.581z"
	/>
<g>
</g>
<g>
</g>
<g>
</g>
<g>
</g>
<g>
</g>
<g>
</g>
<g>
</g>
<g>
</g>
<g>
</g>
<g>
</g>
<g>
</g>
<g>
</g>
<g>
</g>
<g>
</g>
<g>
</g>
</svg>
