<?xml version="1.0" encoding="iso-8859-1"?>
<!-- Generator: Adobe Illustrator 18.0.0, SVG Export Plug-In . SVG Version: 6.00 Build 0)  -->
<!DOCTYPE svg PUBLIC "-//W3C//DTD SVG 1.1//EN" "http://www.w3.org/Graphics/SVG/1.1/DTD/svg11.dtd">
<svg version="1.1" id="Capa_1" xmlns="http://www.w3.org/2000/svg" xmlns:xlink="http://www.w3.org/1999/xlink" x="0px" y="0px"
	 viewBox="0 0 292.097 292.097" style="enable-background:new 0 0 292.097 292.097;" xml:space="preserve">
<path d="M283.752,6.253c-0.493-2.555-2.24-4.69-4.648-5.677c-2.407-0.987-5.148-0.692-7.294,0.78
	c-47.02,32.255-204.509,32.255-251.529,0c-2.145-1.471-4.886-1.763-7.292-0.776c-2.406,0.987-4.156,3.119-4.649,5.673
	C3.847,29.55-1.073,78.471,28.625,106.302v170.795c0,8.284,6.716,15,15,15s15-6.716,15-15V122.684
	c9.25,2.621,20.002,4.105,32.508,4.129c22.916,0.044,37.211-24.072,48.527-40.888c1.428-2.122,3.83-3.381,6.388-3.346
	c2.557,0.034,4.922,1.359,6.293,3.518c10.68,16.808,23.315,40.76,48.619,40.717C297.619,126.647,290.228,39.831,283.752,6.253z
	 M116.179,79.953c-0.675,1.745-2.027,3.143-3.748,3.878c-7.598,3.245-21.502,8.016-34.111,6.099
	c-22.543-3.427-29.14-18.568-31.07-27.136c-0.775-3.439,1.152-6.917,4.482-8.074c6.513-2.263,18.234-5.275,30.488-3.247
	c21.514,3.561,30.314,15.491,33.796,23.089C116.795,76.263,116.854,78.207,116.179,79.953z M244.843,62.794
	c-1.931,8.568-8.528,23.709-31.07,27.136c-12.609,1.917-26.513-2.854-34.111-6.099c-1.721-0.735-3.073-2.133-3.748-3.878
	c-0.675-1.745-0.616-3.69,0.164-5.391c3.482-7.598,12.282-19.528,33.796-23.089c12.253-2.028,23.975,0.984,30.488,3.247
	C243.691,55.877,245.618,59.355,244.843,62.794z"/>
<g>
</g>
<g>
</g>
<g>
</g>
<g>
</g>
<g>
</g>
<g>
</g>
<g>
</g>
<g>
</g>
<g>
</g>
<g>
</g>
<g>
</g>
<g>
</g>
<g>
</g>
<g>
</g>
<g>
</g>
</svg>
