<?xml version="1.0" encoding="iso-8859-1"?>
<!-- Generator: Adobe Illustrator 18.0.0, SVG Export Plug-In . SVG Version: 6.00 Build 0)  -->
<!DOCTYPE svg PUBLIC "-//W3C//DTD SVG 1.1//EN" "http://www.w3.org/Graphics/SVG/1.1/DTD/svg11.dtd">
<svg version="1.1" id="Capa_1" xmlns="http://www.w3.org/2000/svg" xmlns:xlink="http://www.w3.org/1999/xlink" x="0px" y="0px"
	 viewBox="0 0 292.789 292.789" style="enable-background:new 0 0 292.789 292.789;" xml:space="preserve">
<g>
	<path d="M220.21,252.789h-41.288v-49.449c-2.045-1.516-3.987-3.166-5.8-4.955c-2.034,6.444-5.031,12.623-8.956,18.357
		c-1.619,2.365-3.38,4.595-5.244,6.714v29.333h-41.287c-5.364,0-9.713,4.349-9.713,9.713v20.575c0,5.364,4.349,9.713,9.713,9.713
		H220.21c5.364,0,9.713-4.348,9.713-9.713v-20.575C229.923,257.137,225.574,252.789,220.21,252.789z"/>
	<path d="M242.874,56.282c-1.201-6.411-7.371-10.636-13.783-9.435l-12.964,2.427l-6.994-37.351
		c-1.22-6.514-11.23-10.106-22.358-8.022c-11.128,2.084-19.161,9.054-17.941,15.568l6.994,37.351l-32.48,6.082l-9.974-53.263
		C132.311,3.963,127.351,0,121.778,0c-0.721,0-1.452,0.066-2.187,0.204L45.456,14.086c-6.411,1.201-10.636,7.371-9.435,13.783
		c2.773,14.808,16.616,88.739,19.39,103.551c10.132-11.363,23.64-19.038,38.851-21.886c26.437-4.95,52.676,5.783,68.274,26.69
		c1.145-2.329,2.462-4.594,3.955-6.775c8.147-11.901,20.441-19.917,34.616-22.571c22.242-4.165,44.265,5.931,55.865,24.693
		L242.874,56.282z M115.223,21.369l8.466,45.214L65.653,77.451l-8.466-45.214L115.223,21.369z"/>
	<path d="M155.434,168.548c-5.008-26.745-30.747-44.364-57.491-39.356c-26.744,5.008-44.364,30.747-39.356,57.491
		c5.009,26.749,30.752,44.363,57.491,39.356C142.822,221.031,160.442,195.291,155.434,168.548z"/>
	<path d="M204.788,126.536c-18.454,3.455-30.612,21.216-27.156,39.67c3.456,18.457,21.219,30.611,39.67,27.156
		c18.454-3.455,30.612-21.216,27.156-39.67C241.001,135.235,223.238,123.081,204.788,126.536z"/>
</g>
<g>
</g>
<g>
</g>
<g>
</g>
<g>
</g>
<g>
</g>
<g>
</g>
<g>
</g>
<g>
</g>
<g>
</g>
<g>
</g>
<g>
</g>
<g>
</g>
<g>
</g>
<g>
</g>
<g>
</g>
</svg>
