<?xml version="1.0" standalone="no"?>
<!DOCTYPE svg PUBLIC "-//W3C//DTD SVG 1.1//EN" "http://www.w3.org/Graphics/SVG/1.1/DTD/svg11.dtd" >
<svg xmlns="http://www.w3.org/2000/svg" xmlns:xlink="http://www.w3.org/1999/xlink" version="1.1">
<metadata>
Created by FontForge 20150824 at Sun Mar  6 11:36:49 2016
 By Everything Fonts
Goma Shin
</metadata>
<defs>
<font id="Rockin-Record__G" horiz-adv-x="512" >
  <font-face 
    font-family="Rockin Record__G"
    font-weight="400"
    font-stretch="normal"
    units-per-em="1024"
    panose-1="2 11 6 0 0 0 0 0 0 0"
    ascent="860"
    descent="-164"
    x-height="828"
    cap-height="828"
    bbox="15.3333 -158.721 980 860"
    underline-thickness="48"
    underline-position="-120"
    unicode-range="U+0020-2219"
  />
<missing-glyph 
d="M201 313v110h110v-110h-110z" />
    <glyph glyph-name=".notdef" 
d="M201 313v110h110v-110h-110z" />
    <glyph glyph-name="glyph1" horiz-adv-x="0" 
 />
    <glyph glyph-name="space" unicode=" " horiz-adv-x="284" 
 />
    <glyph glyph-name="exclam" unicode="!" 
 />
    <glyph glyph-name="quotedbl" unicode="&#x22;" 
 />
    <glyph glyph-name="numbersign" unicode="#" 
 />
    <glyph glyph-name="dollar" unicode="$" 
 />
    <glyph glyph-name="percent" unicode="%" 
 />
    <glyph glyph-name="ampersand" unicode="&#x26;" 
 />
    <glyph glyph-name="quotesingle" unicode="'" horiz-adv-x="259" 
d="M18 777q-1 31 22.5 57t63.5 26h40q40 0 63.5 -26t22.5 -57v-43q1 -24 -22.5 -50t-84 -42.5t-88 -12.5t-17.5 148z" />
    <glyph glyph-name="parenleft" unicode="(" 
 />
    <glyph glyph-name="parenright" unicode=")" 
 />
    <glyph glyph-name="asterisk" unicode="*" 
 />
    <glyph glyph-name="plus" unicode="+" 
 />
    <glyph glyph-name="comma" unicode="," horiz-adv-x="314" 
d="M47 133q-1 31 22.5 57t63.5 26h48q40 0 63.5 -26t22.5 -57v-49q1 -32 -22.5 -58t-98.5 -47t-97.5 -2.5t-1.5 156.5z" />
    <glyph glyph-name="hyphen" unicode="-" horiz-adv-x="522" 
d="M416 516q25 -2 40.5 -21.5t15.5 -44.5v-70q0 -25 -15.5 -44.5t-40.5 -21.5h-310q-25 2 -40.5 21.5t-15.5 44.5v70q0 25 15.5 44.5t40.5 21.5h310z" />
    <glyph glyph-name="period" unicode="." horiz-adv-x="314" 
d="M47 133q-1 31 22.5 57t63.5 26h48q40 0 63.5 -26t22.5 -57v-49q1 -32 -22.5 -58t-63.5 -26h-48q-40 0 -63.5 26t-22.5 58v49z" />
    <glyph glyph-name="slash" unicode="/" 
 />
    <glyph glyph-name="zero" unicode="0" horiz-adv-x="668" 
d="M284 0q-88 5 -145.5 58.5t-81 132t-25.5 155.5v136q2 77 25.5 155.5t81 132t145.5 58.5h100q88 -5 145.5 -58.5t81 -132t25.5 -155.5v-136q-2 -77 -25.5 -155.5t-81 -132t-145.5 -58.5h-100zM348 218q12 21 17 58.5t7 75.5v124q-2 38 -7 75.5t-17 58.5q-14 13 -28 0
q-12 -21 -17 -58.5t-7 -75.5v-124q2 -38 7 -75.5t17 -58.5q14 -13 28 0z" />
    <glyph glyph-name="one" unicode="1" horiz-adv-x="636" 
d="M548 212q25 -2 40.5 -21.5t15.5 -44.5v-80q0 -25 -15.5 -44.5t-40.5 -21.5h-460q-25 2 -40.5 21.5t-15.5 44.5v80q0 25 15.5 44.5t40.5 21.5h96v404h-96q-25 2 -40.5 21.5t-15.5 44.5v80q0 25 15.5 44.5t40.5 21.5h274q31 -1 59.5 -38.5t30.5 -93.5v-484h96z" />
    <glyph glyph-name="two" unicode="2" horiz-adv-x="672" 
d="M192 1q-83 -1 -120 29t-40 98v102q7 58 68.5 111t163.5 116.5t108 108.5v38q-29 25 -70 6q-7 -7 -6 -40q-6 -56 -56 -60h-153q-49 4 -55 60v68q5 68 30.5 106.5t71.5 59.5t108 24h188q62 -3 108 -24t71.5 -59.5t30.5 -106.5v-68q-6 -66 -67.5 -116.5t-173.5 -136.5
t-105 -105h284q25 -2 40.5 -21.5t15.5 -44.5v-80q0 -25 -15.5 -44.5t-40.5 -21.5z" />
    <glyph glyph-name="three" unicode="3" horiz-adv-x="670" 
d="M190 434q0 25 15.5 44.5t40.5 21.5h70q39 0 44 18q18 38 12 84q-33 25 -70 8q-7 -7 -6 -40q-6 -56 -56 -60h-154q-48 4 -54 60v68q5 68 30.5 106.5t71.5 59.5t108 24h186q56 -3 100 -25t75 -59.5t35 -82.5v-123q-5 -37 -21.5 -69.5t-42.5 -54.5q26 -22 42.5 -54.5
t21.5 -69.5v-123q-4 -45 -35 -82.5t-75 -59.5t-100 -25h-186q-62 3 -108 24t-71.5 59.5t-30.5 106.5v68q6 56 54 60h154q50 -4 56 -60q-1 -33 6 -40q37 -17 70 8q6 46 -12 84q-5 18 -44 18h-70q-25 2 -40.5 21.5t-15.5 44.5v40z" />
    <glyph glyph-name="four" unicode="4" horiz-adv-x="650" 
d="M437 0q-40 0 -63.5 26t-21.5 58v78h-180q-70 1 -105 43t-35 102q13 134 58 261t101 190.5t111 69.5h226q31 -1 59.5 -38.5t30.5 -93.5v-612q0 -32 -23.5 -58t-62.5 -26h-95zM351 328v278q-28 -46 -41.5 -128t-11.5 -150h53z" />
    <glyph glyph-name="five" unicode="5" horiz-adv-x="672" 
d="M245 0q-63 3 -109 24t-71.5 59.5t-30.5 106.5v68q6 56 56 60h152q50 -4 56 -60q-1 -33 6 -40q26 -17 54 10q14 50 13 125h-194q-67 6 -103.5 47.5t-41.5 90.5v203q2 56 30.5 93.5t59.5 38.5h462q25 -2 40.5 -21.5t15.5 -44.5v-80q0 -25 -15.5 -44.5t-40.5 -21.5h-286v-90
h208q64 -7 99 -55.5t34 -108.5q-4 -91 -27 -169.5t-80.5 -132t-145.5 -58.5h-141z" />
    <glyph glyph-name="six" unicode="6" horiz-adv-x="653" 
d="M284 0q-88 5 -145.5 58.5t-81 132t-25.5 155.5v137q2 76 25.5 154.5t81 132t145.5 58.5h126q62 -3 108 -24t71.5 -59.5t30.5 -106.5v-68q-6 -56 -54 -60h-154q-50 4 -56 60q1 33 -6 40q-16 13 -30 0q-20 -42 -22 -120h190q60 -2 96.5 -40t35.5 -98q-2 -83 -25.5 -161.5
t-81 -132t-145.5 -58.5h-84zM326 210q24 33 28 116h-56q4 -83 28 -116z" />
    <glyph glyph-name="seven" unicode="7" horiz-adv-x="674" 
d="M294 0q-45 0 -68.5 31t-13.5 97l146 488h-270q-25 2 -40.5 21.5t-15.5 44.5v80q0 25 15.5 44.5t40.5 21.5h465q39 -4 64 -34t18.5 -75.5t-23.5 -94.5l-154 -528q-22 -100 -116 -96h-48z" />
    <glyph glyph-name="eight" unicode="8" horiz-adv-x="670" 
d="M428 828q57 -3 100 -24t75 -58t35 -84v-123q-7 -81 -66 -125q59 -44 66 -125v-123q-3 -47 -35 -84t-75 -58t-100 -24h-186q-57 3 -100 24t-75 58t-35 84v123q7 81 66 125q-59 44 -66 125v123q3 47 35 84t75 58t100 24h186zM372 536v60v6q0 10 -10 14h-54q-10 -4 -10 -14
v-66q8 -16 19 -24.5t19 -9.5q8 1 17.5 8.5t18.5 25.5zM372 292q-9 18 -18.5 25.5t-17.5 8.5q-8 -1 -19 -9.5t-19 -24.5v-66q0 -10 10 -14h54q10 4 10 14v6v60z" />
    <glyph glyph-name="nine" unicode="9" horiz-adv-x="653" 
d="M369 828q88 -5 145.5 -58.5t81 -132t25.5 -155.5v-137q-2 -76 -25.5 -154.5t-81 -132t-145.5 -58.5h-126q-62 3 -108 24t-71.5 59.5t-30.5 106.5v68q6 56 54 60h154q50 -4 56 -60q-1 -33 6 -40q16 -13 30 0q20 42 22 120h-190q-60 2 -96.5 40t-35.5 98q2 83 25.5 161.5
t81 132t145.5 58.5h84zM327 618q-24 -33 -28 -116h56q-4 83 -28 116z" />
    <glyph glyph-name="colon" unicode=":" 
 />
    <glyph glyph-name="semicolon" unicode=";" 
 />
    <glyph glyph-name="less" unicode="&#x3c;" 
 />
    <glyph glyph-name="equal" unicode="=" 
 />
    <glyph glyph-name="greater" unicode="&#x3e;" 
 />
    <glyph glyph-name="question" unicode="?" 
 />
    <glyph glyph-name="at" unicode="@" 
 />
    <glyph glyph-name="A" unicode="A" horiz-adv-x="664" 
d="M116 0q-41 0 -64.5 26t-21.5 58l22 502q13 128 75 185.5t173 56.5h64q111 1 173 -56.5t75 -185.5l22 -502q2 -32 -21.5 -58t-64.5 -26h-94q-39 0 -62.5 26t-23.5 58l-3 108h-66l-3 -108q0 -32 -23.5 -58t-62.5 -26h-94zM314 522l-8 -154h51l-7 154q-3 40 -5.5 63.5
t-10.5 30.5h-4q-9 -7 -11 -30.5t-5 -63.5z" />
    <glyph glyph-name="B" unicode="B" horiz-adv-x="670" 
d="M122 0q-31 1 -59.5 38.5t-30.5 93.5v564q2 56 30.5 93.5t59.5 38.5h302q55 -1 103.5 -23t79 -68t31.5 -101v-84q-5 -93 -86 -138q81 -45 86 -138v-84q-1 -55 -32.5 -101.5t-82.5 -68.5t-99 -22h-302zM372 542v42q1 28 -20 32h-54v-114h22q43 0 52 40zM372 286
q-9 40 -52 40h-22v-114h54q21 4 20 32v42z" />
    <glyph glyph-name="C" unicode="C" horiz-adv-x="652" 
d="M32 482q2 77 25.5 155.5t81 132t145.5 58.5h126q62 -3 108 -24t71.5 -59.5t30.5 -106.5v-68q-6 -56 -55 -60h-153q-50 4 -56 60q1 33 -6 40q-16 13 -30 0q-12 -21 -17 -58.5t-7 -75.5v-124q2 -38 7 -75.5t17 -58.5q14 -13 30 0q7 7 6 40q6 56 56 60h153q49 -4 55 -60v-68
q-5 -68 -30.5 -106.5t-71.5 -59.5t-108 -24h-126q-88 5 -145.5 58.5t-81 132t-25.5 155.5v136z" />
    <glyph glyph-name="D" unicode="D" horiz-adv-x="668" 
d="M122 0q-31 1 -59.5 38.5t-30.5 93.5v564q2 56 30.5 93.5t59.5 38.5h252q92 -3 152.5 -57.5t84 -133t25.5 -155.5v-136q-2 -77 -25.5 -155.5t-84 -133t-152.5 -57.5h-252zM346 220q15 13 20.5 62t5.5 70v124q0 21 -5.5 70t-20.5 62q-18 11 -48 8v-404q30 -3 48 8z" />
    <glyph glyph-name="E" unicode="E" horiz-adv-x="672" 
d="M32 696q2 56 30.5 93.5t59.5 38.5h462q25 -2 40.5 -21.5t15.5 -44.5v-80q0 -25 -15.5 -44.5t-40.5 -21.5h-286v-116h228q25 -2 40.5 -21.5t15.5 -44.5v-40q0 -25 -15.5 -44.5t-40.5 -21.5h-228v-116h286q25 -2 40.5 -21.5t15.5 -44.5v-80q0 -25 -15.5 -44.5t-40.5 -21.5
h-462q-31 1 -59.5 38.5t-30.5 93.5v564z" />
    <glyph glyph-name="F" unicode="F" horiz-adv-x="672" 
d="M32 696q2 56 30.5 93.5t59.5 38.5h462q25 -2 40.5 -21.5t15.5 -44.5v-80q0 -25 -15.5 -44.5t-40.5 -21.5h-286v-116h228q25 -2 40.5 -21.5t15.5 -44.5v-40q0 -25 -15.5 -44.5t-40.5 -21.5h-228v-244q2 -32 -21.5 -58t-62.5 -26h-94q-41 0 -64.5 26t-23.5 58v612z" />
    <glyph glyph-name="G" unicode="G" horiz-adv-x="653" 
d="M284 0q-88 5 -145.5 58.5t-81 132t-25.5 155.5v136q2 77 25.5 155.5t81 132t145.5 58.5h126q62 -3 108 -24t71.5 -59.5t30.5 -106.5v-68q-6 -56 -55 -60h-153q-50 4 -56 60q1 33 -6 40q-16 13 -30 0q-12 -21 -17 -58.5t-7 -75.5v-124q2 -38 7 -75.5t17 -58.5
q19 -13 53 -10v110q-16 -3 -31 13t-13.5 83t49.5 69h111q66 1 98.5 -30.5t32.5 -80.5v-240q0 -66 -45 -113q-18 -16 -42 -19h-249z" />
    <glyph glyph-name="H" unicode="H" horiz-adv-x="674" 
d="M119 0q-40 0 -63.5 26t-22.5 58v661q-1 31 22.5 57t63.5 26h94q40 0 63.5 -26t22.5 -57v-244h76v244q-1 31 22.5 57t63.5 26h94q40 0 63.5 -26t22.5 -57v-661q1 -32 -22.5 -58t-63.5 -26h-94q-40 0 -63.5 26t-22.5 58v243h-76v-243q1 -32 -22.5 -58t-63.5 -26h-94z" />
    <glyph glyph-name="I" unicode="I" horiz-adv-x="332" 
d="M33 745q-1 31 22.5 57t63.5 26h94q40 0 63.5 -26t22.5 -57v-661q1 -32 -22.5 -58t-63.5 -26h-94q-40 0 -63.5 26t-22.5 58v661z" />
    <glyph glyph-name="J" unicode="J" horiz-adv-x="654" 
d="M356 744q-2 32 21.5 58t63.5 26h94q40 0 63.5 -26t21.5 -58v-398q-2 -77 -25.5 -155.5t-81 -132t-145.5 -58.5h-126q-62 3 -108 24t-71.5 59.5t-30.5 106.5v68q6 56 55 60h153q50 -4 56 -60q-1 -33 6 -40q16 -13 30 0q12 21 17 58.5t7 73.5v394z" />
    <glyph glyph-name="K" unicode="K" horiz-adv-x="674" 
d="M118 0q-39 0 -62.5 26t-23.5 57v661q0 32 23.5 58t64.5 26h93q40 0 63.5 -26t23.5 -58v-214q57 45 76 216q0 28 22.5 55t69.5 27h86q41 0 64.5 -26t23.5 -58q-8 -113 -44.5 -199t-83.5 -149q38 -35 80 -135t46 -177q2 -32 -21.5 -58t-62.5 -26h-94q-41 0 -62.5 26.5
t-25.5 57.5q-3 121 -36 152l-40 -32v-120q2 -32 -21.5 -58t-64.5 -26h-94z" />
    <glyph glyph-name="L" unicode="L" horiz-adv-x="620" 
d="M32 746q0 30 23.5 56t64.5 26h94q39 0 62.5 -26t21.5 -56v-534h234q25 -2 40.5 -21.5t15.5 -44.5v-80q0 -25 -15.5 -44.5t-40.5 -21.5h-410q-31 1 -59.5 38.5t-30.5 93.5v614z" />
    <glyph glyph-name="M" unicode="M" horiz-adv-x="1012" 
d="M120 0q-41 0 -64.5 26t-23.5 58v661q0 31 23.5 57t64.5 26h178q59 -5 100.5 -66t107.5 -248q66 187 107.5 248t100.5 66h178q41 0 64.5 -26t23.5 -57v-661q0 -32 -23.5 -58t-64.5 -26h-92q-41 0 -64.5 26t-21.5 58v244q-34 -38 -76 -250q-22 -79 -86 -78h-92
q-64 -1 -86 78q-42 212 -76 250v-244q2 -32 -21.5 -58t-64.5 -26h-92z" />
    <glyph glyph-name="N" unicode="N" horiz-adv-x="672" 
d="M118 0q-39 0 -62.5 26t-23.5 58v660q0 32 23.5 58t62.5 26h94q47 1 76 -40l86 -198v154q0 32 23.5 58t62.5 26h94q39 0 65 -27q21 -25 21 -57v-660q0 -32 -23.5 -58t-62.5 -26h-94q-47 -1 -76 40l-86 198v-154q0 -32 -23.5 -58t-62.5 -26h-94z" />
    <glyph glyph-name="O" unicode="O" horiz-adv-x="668" 
d="M284 0q-88 5 -145.5 58.5t-81 132t-25.5 155.5v136q2 77 25.5 155.5t81 132t145.5 58.5h100q88 -5 145.5 -58.5t81 -132t25.5 -155.5v-136q-2 -77 -25.5 -155.5t-81 -132t-145.5 -58.5h-100zM348 218q12 21 17 58.5t7 75.5v124q-2 38 -7 75.5t-17 58.5q-14 13 -28 0
q-12 -21 -17 -58.5t-7 -75.5v-124q2 -38 7 -75.5t17 -58.5q14 -13 28 0z" />
    <glyph glyph-name="P" unicode="P" horiz-adv-x="670" 
d="M120 0q-41 0 -64.5 26t-23.5 58v612q2 56 30.5 93.5t59.5 38.5h262q88 -5 151.5 -70.5t83 -136t17.5 -147.5q0 -67 -24.5 -133.5t-82 -120t-145.5 -58.5h-86v-78q2 -32 -21.5 -58t-62.5 -26h-94zM348 378q12 21 17.5 58.5t5.5 57.5t-5.5 57.5t-17.5 58.5q-17 8 -50 6
v-244q33 -2 50 6z" />
    <glyph glyph-name="Q" unicode="Q" horiz-adv-x="668" 
d="M284 0q-88 5 -145.5 58.5t-81 132t-25.5 155.5v136q2 77 25.5 155.5t81 132t145.5 58.5h100q88 -5 145.5 -58.5t81 -132t25.5 -155.5v-136q-2 -77 -24 -151t-69 -123l28 -95q10 -30 -5 -61.5t-53 -43.5l-90 -26q-39 -12 -68.5 6.5t-38.5 49.5l-29 98h-3zM348 218
q12 21 17 58.5t7 75.5v124q-2 38 -7 75.5t-17 58.5q-14 13 -28 0q-12 -21 -17 -58.5t-7 -75.5v-124q2 -38 7 -75.5t17 -58.5q14 -13 28 0z" />
    <glyph glyph-name="R" unicode="R" horiz-adv-x="674" 
d="M120 0q-41 0 -64.5 26t-23.5 58v612q2 56 30.5 93.5t59.5 38.5h262q88 -5 151.5 -70.5t83 -136t17.5 -147.5q-3 -123 -73 -180q63 -89 77 -210q2 -32 -21.5 -58t-62.5 -26h-94q-41 0 -62.5 26.5t-25.5 57.5q-14 95 -30 136l-46 -18v-118q2 -32 -21.5 -58t-62.5 -26h-94z
M372 458v50q-2 59 -24 102q-17 8 -50 6v-214h10q62 19 64 56z" />
    <glyph glyph-name="S" unicode="S" horiz-adv-x="664" 
d="M242 0q-62 3 -108 24t-71.5 59.5t-30.5 106.5v68q6 56 56 60h152q50 -4 56 -60q0 -27 14 -40q15 -13 29 0q14 20 15 58q-1 20 -16 34.5t-112 41t-142 66.5t-49 120q-1 54 25 125t83.5 117.5t127.5 47.5h150q63 -3 109 -24t71.5 -59.5t30.5 -106.5v-68q-6 -56 -56 -60
h-155q-51 4 -56 60q0 33 -12 40q-16 13 -30 0q-12 -20 -13 -58q1 -20 16 -34.5t112 -41t142 -66.5t50 -120q0 -54 -26 -125t-83.5 -117.5t-126.5 -47.5h-152z" />
    <glyph glyph-name="T" unicode="T" horiz-adv-x="668" 
d="M200 82v534h-114q-25 2 -40.5 21.5t-15.5 44.5v80q0 25 15.5 44.5t40.5 21.5h496q25 -2 40.5 -21.5t15.5 -44.5v-80q0 -25 -15.5 -44.5t-40.5 -21.5h-114v-534q0 -30 -23.5 -56t-62.5 -26h-96q-39 0 -62.5 26t-23.5 56z" />
    <glyph glyph-name="U" unicode="U" horiz-adv-x="670" 
d="M284 0q-88 5 -145.5 58.5t-81 132t-25.5 155.5l1 399q-1 31 22.5 57t63.5 26h92q40 0 63.5 -26t22.5 -57l-1 -393q2 -38 7 -75.5t17 -58.5q14 -13 28 0q12 21 17 58.5t7 75.5l1 393q-1 31 22.5 57t63.5 26h92q40 0 63.5 -26t22.5 -57l-1 -399q-2 -77 -25.5 -155.5
t-81 -132t-145.5 -58.5h-100z" />
    <glyph glyph-name="V" unicode="V" horiz-adv-x="664" 
d="M316 306q3 -40 5 -63.5t9 -30.5h4q6 7 8.5 30.5t5.5 63.5l20 438q0 32 23.5 58t62.5 26h94q41 0 64.5 -26t21.5 -58l-24 -474q-14 -147 -77 -209.5t-171 -60.5h-60q-108 -2 -171 60.5t-77 209.5l-24 474q-2 32 21.5 58t64.5 26h94q39 0 62.5 -26t23.5 -58z" />
    <glyph glyph-name="W" unicode="W" horiz-adv-x="1002" 
d="M314 306q3 -40 5 -63.5t11 -30.5h4q8 7 10.5 30.5t5.5 63.5l18 438q-2 32 21.5 58t64.5 26h94q41 0 64.5 -26t21.5 -58l18 -438q3 -40 5.5 -63.5t10.5 -30.5h4q9 7 11 30.5t5 63.5l18 438q0 32 23.5 58t62.5 26h94q41 0 64.5 -26t21.5 -58l-22 -474q-14 -147 -77 -209.5
t-171 -60.5h-48q-102 3 -154 84q-50 -81 -152 -84h-48q-108 -2 -171 60.5t-77 209.5l-22 474q-2 32 21.5 58t64.5 26h94q39 0 62.5 -26t23.5 -58z" />
    <glyph glyph-name="X" unicode="X" horiz-adv-x="676" 
d="M119 0q-39 0 -62.5 26t-23.5 56q-1 93 23.5 176t78.5 156q-54 73 -78.5 156t-23.5 174q0 32 23.5 58t64.5 26h94q39 0 62.5 -26t23.5 -58q-1 -35 4 -111.5t30 -132.5h6q25 56 30 132.5t4 111.5q0 32 23.5 58t62.5 26h94q41 0 64.5 -26t23.5 -58q1 -91 -23.5 -174
t-78.5 -156q54 -73 78.5 -156t23.5 -176q0 -30 -23.5 -56t-62.5 -26h-94q-41 0 -64.5 26t-23.5 58q0 36 -9.5 122t-24.5 122h-6q-15 -36 -24.5 -122t-9.5 -122q0 -32 -23.5 -58t-64.5 -26h-94z" />
    <glyph glyph-name="Y" unicode="Y" horiz-adv-x="666" 
d="M28 696v48q0 32 23.5 58t64.5 26h94q39 0 62.5 -26t22.5 -58l1 -30q-1 -102 34 -214h6q35 112 34 214l1 30q-1 32 22.5 58t62.5 26h94q41 0 64.5 -26t23.5 -58v-48q0 -83 -62 -214t-110 -166v-226q1 -38 -22.5 -64t-63.5 -26h-94q-40 0 -63.5 26t-22.5 64v226
q-48 35 -110 166t-62 214z" />
    <glyph glyph-name="Z" unicode="Z" horiz-adv-x="676" 
d="M124 0q-42 4 -67 34t-24 78t29 92l298 412h-270q-25 2 -40.5 21.5t-15.5 44.5v80q0 25 15.5 44.5t40.5 21.5h465q39 -4 64 -34t24 -78t-29 -92l-290 -412h262q25 -2 40.5 -21.5t15.5 -44.5v-80q0 -25 -15.5 -44.5t-40.5 -21.5h-462z" />
    <glyph glyph-name="bracketleft" unicode="[" 
 />
    <glyph glyph-name="backslash" unicode="\" 
 />
    <glyph glyph-name="bracketright" unicode="]" 
 />
    <glyph glyph-name="asciicircum" unicode="^" 
 />
    <glyph glyph-name="underscore" unicode="_" 
 />
    <glyph glyph-name="grave" unicode="`" 
 />
    <glyph glyph-name="a" unicode="a" horiz-adv-x="664" 
d="M116 0q-41 0 -64.5 26t-21.5 58l22 502q13 128 75 185.5t173 56.5h64q111 1 173 -56.5t75 -185.5l22 -502q2 -32 -21.5 -58t-64.5 -26h-94q-39 0 -62.5 26t-23.5 58l-3 108h-66l-3 -108q0 -32 -23.5 -58t-62.5 -26h-94zM314 522l-8 -154h51l-7 154q-3 40 -5.5 63.5
t-10.5 30.5h-4q-9 -7 -11 -30.5t-5 -63.5z" />
    <glyph glyph-name="b" unicode="b" horiz-adv-x="670" 
d="M122 0q-31 1 -59.5 38.5t-30.5 93.5v564q2 56 30.5 93.5t59.5 38.5h302q55 -1 103.5 -23t79 -68t31.5 -101v-84q-5 -93 -86 -138q81 -45 86 -138v-84q-1 -55 -32.5 -101.5t-82.5 -68.5t-99 -22h-302zM372 542v42q1 28 -20 32h-54v-114h22q43 0 52 40zM372 286
q-9 40 -52 40h-22v-114h54q21 4 20 32v42z" />
    <glyph glyph-name="c" unicode="c" horiz-adv-x="652" 
d="M32 482q2 77 25.5 155.5t81 132t145.5 58.5h126q62 -3 108 -24t71.5 -59.5t30.5 -106.5v-68q-6 -56 -55 -60h-153q-50 4 -56 60q1 33 -6 40q-16 13 -30 0q-12 -21 -17 -58.5t-7 -75.5v-124q2 -38 7 -75.5t17 -58.5q14 -13 30 0q7 7 6 40q6 56 56 60h153q49 -4 55 -60v-68
q-5 -68 -30.5 -106.5t-71.5 -59.5t-108 -24h-126q-88 5 -145.5 58.5t-81 132t-25.5 155.5v136z" />
    <glyph glyph-name="d" unicode="d" horiz-adv-x="668" 
d="M122 0q-31 1 -59.5 38.5t-30.5 93.5v564q2 56 30.5 93.5t59.5 38.5h252q92 -3 152.5 -57.5t84 -133t25.5 -155.5v-136q-2 -77 -25.5 -155.5t-84 -133t-152.5 -57.5h-252zM346 220q15 13 20.5 62t5.5 70v124q0 21 -5.5 70t-20.5 62q-18 11 -48 8v-404q30 -3 48 8z" />
    <glyph glyph-name="e" unicode="e" horiz-adv-x="672" 
d="M32 696q2 56 30.5 93.5t59.5 38.5h462q25 -2 40.5 -21.5t15.5 -44.5v-80q0 -25 -15.5 -44.5t-40.5 -21.5h-286v-116h228q25 -2 40.5 -21.5t15.5 -44.5v-40q0 -25 -15.5 -44.5t-40.5 -21.5h-228v-116h286q25 -2 40.5 -21.5t15.5 -44.5v-80q0 -25 -15.5 -44.5t-40.5 -21.5
h-462q-31 1 -59.5 38.5t-30.5 93.5v564z" />
    <glyph glyph-name="f" unicode="f" horiz-adv-x="672" 
d="M32 696q2 56 30.5 93.5t59.5 38.5h462q25 -2 40.5 -21.5t15.5 -44.5v-80q0 -25 -15.5 -44.5t-40.5 -21.5h-286v-116h228q25 -2 40.5 -21.5t15.5 -44.5v-40q0 -25 -15.5 -44.5t-40.5 -21.5h-228v-244q2 -32 -21.5 -58t-62.5 -26h-94q-41 0 -64.5 26t-23.5 58v612z" />
    <glyph glyph-name="g" unicode="g" horiz-adv-x="653" 
d="M284 0q-88 5 -145.5 58.5t-81 132t-25.5 155.5v136q2 77 25.5 155.5t81 132t145.5 58.5h126q62 -3 108 -24t71.5 -59.5t30.5 -106.5v-68q-6 -56 -55 -60h-153q-50 4 -56 60q1 33 -6 40q-16 13 -30 0q-12 -21 -17 -58.5t-7 -75.5v-124q2 -38 7 -75.5t17 -58.5
q19 -13 53 -10v110q-16 -3 -31 13t-13.5 83t49.5 69h111q66 1 98.5 -30.5t32.5 -80.5v-240q0 -66 -45 -113q-18 -16 -42 -19h-249z" />
    <glyph glyph-name="h" unicode="h" horiz-adv-x="674" 
d="M119 0q-40 0 -63.5 26t-22.5 58v661q-1 31 22.5 57t63.5 26h94q40 0 63.5 -26t22.5 -57v-244h76v244q-1 31 22.5 57t63.5 26h94q40 0 63.5 -26t22.5 -57v-661q1 -32 -22.5 -58t-63.5 -26h-94q-40 0 -63.5 26t-22.5 58v243h-76v-243q1 -32 -22.5 -58t-63.5 -26h-94z" />
    <glyph glyph-name="i" unicode="i" horiz-adv-x="332" 
d="M33 745q-1 31 22.5 57t63.5 26h94q40 0 63.5 -26t22.5 -57v-661q1 -32 -22.5 -58t-63.5 -26h-94q-40 0 -63.5 26t-22.5 58v661z" />
    <glyph glyph-name="j" unicode="j" horiz-adv-x="654" 
d="M356 744q-2 32 21.5 58t63.5 26h94q40 0 63.5 -26t21.5 -58v-398q-2 -77 -25.5 -155.5t-81 -132t-145.5 -58.5h-126q-62 3 -108 24t-71.5 59.5t-30.5 106.5v68q6 56 55 60h153q50 -4 56 -60q-1 -33 6 -40q16 -13 30 0q12 21 17 58.5t7 73.5v394z" />
    <glyph glyph-name="k" unicode="k" horiz-adv-x="674" 
d="M118 0q-39 0 -62.5 26t-23.5 57v661q0 32 23.5 58t64.5 26h93q40 0 63.5 -26t23.5 -58v-214q57 45 76 216q0 28 22.5 55t69.5 27h86q41 0 64.5 -26t23.5 -58q-8 -113 -44.5 -199t-83.5 -149q38 -35 80 -135t46 -177q2 -32 -21.5 -58t-62.5 -26h-94q-41 0 -62.5 26.5
t-25.5 57.5q-3 121 -36 152l-40 -32v-120q2 -32 -21.5 -58t-64.5 -26h-94z" />
    <glyph glyph-name="l" unicode="l" horiz-adv-x="620" 
d="M32 746q0 30 23.5 56t64.5 26h94q39 0 62.5 -26t21.5 -56v-534h234q25 -2 40.5 -21.5t15.5 -44.5v-80q0 -25 -15.5 -44.5t-40.5 -21.5h-410q-31 1 -59.5 38.5t-30.5 93.5v614z" />
    <glyph glyph-name="m" unicode="m" horiz-adv-x="1012" 
d="M120 0q-41 0 -64.5 26t-23.5 58v661q0 31 23.5 57t64.5 26h178q59 -5 100.5 -66t107.5 -248q66 187 107.5 248t100.5 66h178q41 0 64.5 -26t23.5 -57v-661q0 -32 -23.5 -58t-64.5 -26h-92q-41 0 -64.5 26t-21.5 58v244q-34 -38 -76 -250q-22 -79 -86 -78h-92
q-64 -1 -86 78q-42 212 -76 250v-244q2 -32 -21.5 -58t-64.5 -26h-92z" />
    <glyph glyph-name="n" unicode="n" horiz-adv-x="672" 
d="M118 0q-39 0 -62.5 26t-23.5 58v660q0 32 23.5 58t62.5 26h94q47 1 76 -40l86 -198v154q0 32 23.5 58t62.5 26h94q39 0 65 -27q21 -25 21 -57v-660q0 -32 -23.5 -58t-62.5 -26h-94q-47 -1 -76 40l-86 198v-154q0 -32 -23.5 -58t-62.5 -26h-94z" />
    <glyph glyph-name="o" unicode="o" horiz-adv-x="668" 
d="M284 0q-88 5 -145.5 58.5t-81 132t-25.5 155.5v136q2 77 25.5 155.5t81 132t145.5 58.5h100q88 -5 145.5 -58.5t81 -132t25.5 -155.5v-136q-2 -77 -25.5 -155.5t-81 -132t-145.5 -58.5h-100zM348 218q12 21 17 58.5t7 75.5v124q-2 38 -7 75.5t-17 58.5q-14 13 -28 0
q-12 -21 -17 -58.5t-7 -75.5v-124q2 -38 7 -75.5t17 -58.5q14 -13 28 0z" />
    <glyph glyph-name="p" unicode="p" horiz-adv-x="670" 
d="M120 0q-41 0 -64.5 26t-23.5 58v612q2 56 30.5 93.5t59.5 38.5h262q88 -5 151.5 -70.5t83 -136t17.5 -147.5q0 -67 -24.5 -133.5t-82 -120t-145.5 -58.5h-86v-78q2 -32 -21.5 -58t-62.5 -26h-94zM348 378q12 21 17.5 58.5t5.5 57.5t-5.5 57.5t-17.5 58.5q-17 8 -50 6
v-244q33 -2 50 6z" />
    <glyph glyph-name="q" unicode="q" horiz-adv-x="668" 
d="M284 0q-88 5 -145.5 58.5t-81 132t-25.5 155.5v136q2 77 25.5 155.5t81 132t145.5 58.5h100q88 -5 145.5 -58.5t81 -132t25.5 -155.5v-136q-2 -77 -24 -151t-69 -123l28 -95q10 -30 -5 -61.5t-53 -43.5l-90 -26q-39 -12 -68.5 6.5t-38.5 49.5l-29 98h-3zM348 218
q12 21 17 58.5t7 75.5v124q-2 38 -7 75.5t-17 58.5q-14 13 -28 0q-12 -21 -17 -58.5t-7 -75.5v-124q2 -38 7 -75.5t17 -58.5q14 -13 28 0z" />
    <glyph glyph-name="r" unicode="r" horiz-adv-x="674" 
d="M120 0q-41 0 -64.5 26t-23.5 58v612q2 56 30.5 93.5t59.5 38.5h262q88 -5 151.5 -70.5t83 -136t17.5 -147.5q-3 -123 -73 -180q63 -89 77 -210q2 -32 -21.5 -58t-62.5 -26h-94q-41 0 -62.5 26.5t-25.5 57.5q-14 95 -30 136l-46 -18v-118q2 -32 -21.5 -58t-62.5 -26h-94z
M372 458v50q-2 59 -24 102q-17 8 -50 6v-214h10q62 19 64 56z" />
    <glyph glyph-name="s" unicode="s" horiz-adv-x="664" 
d="M242 0q-62 3 -108 24t-71.5 59.5t-30.5 106.5v68q6 56 56 60h152q50 -4 56 -60q0 -27 14 -40q15 -13 29 0q14 20 15 58q-1 20 -16 34.5t-112 41t-142 66.5t-49 120q-1 54 25 125t83.5 117.5t127.5 47.5h150q63 -3 109 -24t71.5 -59.5t30.5 -106.5v-68q-6 -56 -56 -60
h-155q-51 4 -56 60q0 33 -12 40q-16 13 -30 0q-12 -20 -13 -58q1 -20 16 -34.5t112 -41t142 -66.5t50 -120q0 -54 -26 -125t-83.5 -117.5t-126.5 -47.5h-152z" />
    <glyph glyph-name="t" unicode="t" horiz-adv-x="668" 
d="M200 82v534h-114q-25 2 -40.5 21.5t-15.5 44.5v80q0 25 15.5 44.5t40.5 21.5h496q25 -2 40.5 -21.5t15.5 -44.5v-80q0 -25 -15.5 -44.5t-40.5 -21.5h-114v-534q0 -30 -23.5 -56t-62.5 -26h-96q-39 0 -62.5 26t-23.5 56z" />
    <glyph glyph-name="u" unicode="u" horiz-adv-x="670" 
d="M284 0q-88 5 -145.5 58.5t-81 132t-25.5 155.5l1 399q-1 31 22.5 57t63.5 26h92q40 0 63.5 -26t22.5 -57l-1 -393q2 -38 7 -75.5t17 -58.5q14 -13 28 0q12 21 17 58.5t7 75.5l1 393q-1 31 22.5 57t63.5 26h92q40 0 63.5 -26t22.5 -57l-1 -399q-2 -77 -25.5 -155.5
t-81 -132t-145.5 -58.5h-100z" />
    <glyph glyph-name="v" unicode="v" horiz-adv-x="664" 
d="M316 306q3 -40 5 -63.5t9 -30.5h4q6 7 8.5 30.5t5.5 63.5l20 438q0 32 23.5 58t62.5 26h94q41 0 64.5 -26t21.5 -58l-24 -474q-14 -147 -77 -209.5t-171 -60.5h-60q-108 -2 -171 60.5t-77 209.5l-24 474q-2 32 21.5 58t64.5 26h94q39 0 62.5 -26t23.5 -58z" />
    <glyph glyph-name="w" unicode="w" horiz-adv-x="1002" 
d="M314 306q3 -40 5 -63.5t11 -30.5h4q8 7 10.5 30.5t5.5 63.5l18 438q-2 32 21.5 58t64.5 26h94q41 0 64.5 -26t21.5 -58l18 -438q3 -40 5.5 -63.5t10.5 -30.5h4q9 7 11 30.5t5 63.5l18 438q0 32 23.5 58t62.5 26h94q41 0 64.5 -26t21.5 -58l-22 -474q-14 -147 -77 -209.5
t-171 -60.5h-48q-102 3 -154 84q-50 -81 -152 -84h-48q-108 -2 -171 60.5t-77 209.5l-22 474q-2 32 21.5 58t64.5 26h94q39 0 62.5 -26t23.5 -58z" />
    <glyph glyph-name="x" unicode="x" horiz-adv-x="676" 
d="M119 0q-39 0 -62.5 26t-23.5 56q-1 93 23.5 176t78.5 156q-54 73 -78.5 156t-23.5 174q0 32 23.5 58t64.5 26h94q39 0 62.5 -26t23.5 -58q-1 -35 4 -111.5t30 -132.5h6q25 56 30 132.5t4 111.5q0 32 23.5 58t62.5 26h94q41 0 64.5 -26t23.5 -58q1 -91 -23.5 -174
t-78.5 -156q54 -73 78.5 -156t23.5 -176q0 -30 -23.5 -56t-62.5 -26h-94q-41 0 -64.5 26t-23.5 58q0 36 -9.5 122t-24.5 122h-6q-15 -36 -24.5 -122t-9.5 -122q0 -32 -23.5 -58t-64.5 -26h-94z" />
    <glyph glyph-name="y" unicode="y" horiz-adv-x="666" 
d="M28 696v48q0 32 23.5 58t64.5 26h94q39 0 62.5 -26t22.5 -58l1 -30q-1 -102 34 -214h6q35 112 34 216l1 28q-1 32 22.5 58t62.5 26h94q41 0 64.5 -26t23.5 -58v-48q0 -83 -62 -214t-110 -166v-226q1 -38 -22.5 -64t-63.5 -26h-94q-40 0 -63.5 26t-22.5 64v226
q-48 35 -110 166t-62 214z" />
    <glyph glyph-name="z" unicode="z" horiz-adv-x="676" 
d="M124 0q-42 4 -67 34t-24 78t29 92l298 412h-270q-25 2 -40.5 21.5t-15.5 44.5v80q0 25 15.5 44.5t40.5 21.5h465q39 -4 64 -34t24 -78t-29 -92l-290 -412h262q25 -2 40.5 -21.5t15.5 -44.5v-80q0 -25 -15.5 -44.5t-40.5 -21.5h-462z" />
    <glyph glyph-name="braceleft" unicode="{" 
 />
    <glyph glyph-name="bar" unicode="|" 
 />
    <glyph glyph-name="braceright" unicode="}" 
 />
    <glyph glyph-name="asciitilde" unicode="~" 
 />
    <glyph glyph-name="uni00A0" unicode="&#xa0;" 
 />
    <glyph glyph-name="exclamdown" unicode="&#xa1;" 
 />
    <glyph glyph-name="cent" unicode="&#xa2;" 
 />
    <glyph glyph-name="sterling" unicode="&#xa3;" 
 />
    <glyph glyph-name="currency" unicode="&#xa4;" 
 />
    <glyph glyph-name="yen" unicode="&#xa5;" 
 />
    <glyph glyph-name="brokenbar" unicode="&#xa6;" 
 />
    <glyph glyph-name="section" unicode="&#xa7;" 
 />
    <glyph glyph-name="dieresis" unicode="&#xa8;" 
 />
    <glyph glyph-name="copyright" unicode="&#xa9;" 
 />
    <glyph glyph-name="ordfeminine" unicode="&#xaa;" 
 />
    <glyph glyph-name="guillemotleft" unicode="&#xab;" 
 />
    <glyph glyph-name="logicalnot" unicode="&#xac;" 
 />
    <glyph glyph-name="uni00AD" unicode="&#xad;" 
 />
    <glyph glyph-name="registered" unicode="&#xae;" 
 />
    <glyph glyph-name="macron" unicode="&#xaf;" 
 />
    <glyph glyph-name="degree" unicode="&#xb0;" 
 />
    <glyph glyph-name="plusminus" unicode="&#xb1;" 
 />
    <glyph glyph-name="uni00B2" unicode="&#xb2;" 
 />
    <glyph glyph-name="uni00B3" unicode="&#xb3;" 
 />
    <glyph glyph-name="acute" unicode="&#xb4;" 
 />
    <glyph glyph-name="mu" unicode="&#xb5;" 
 />
    <glyph glyph-name="paragraph" unicode="&#xb6;" 
 />
    <glyph glyph-name="periodcentered" unicode="&#xb7;" 
 />
    <glyph glyph-name="cedilla" unicode="&#xb8;" 
 />
    <glyph glyph-name="uni00B9" unicode="&#xb9;" 
 />
    <glyph glyph-name="ordmasculine" unicode="&#xba;" 
 />
    <glyph glyph-name="guillemotright" unicode="&#xbb;" 
 />
    <glyph glyph-name="onequarter" unicode="&#xbc;" 
 />
    <glyph glyph-name="onehalf" unicode="&#xbd;" 
 />
    <glyph glyph-name="threequarters" unicode="&#xbe;" 
 />
    <glyph glyph-name="questiondown" unicode="&#xbf;" 
 />
    <glyph glyph-name="Agrave" unicode="&#xc0;" 
 />
    <glyph glyph-name="Aacute" unicode="&#xc1;" 
 />
    <glyph glyph-name="Acircumflex" unicode="&#xc2;" 
 />
    <glyph glyph-name="Atilde" unicode="&#xc3;" 
 />
    <glyph glyph-name="Adieresis" unicode="&#xc4;" 
 />
    <glyph glyph-name="Aring" unicode="&#xc5;" 
 />
    <glyph glyph-name="AE" unicode="&#xc6;" 
 />
    <glyph glyph-name="Ccedilla" unicode="&#xc7;" 
 />
    <glyph glyph-name="Egrave" unicode="&#xc8;" 
 />
    <glyph glyph-name="Eacute" unicode="&#xc9;" 
 />
    <glyph glyph-name="Ecircumflex" unicode="&#xca;" 
 />
    <glyph glyph-name="Edieresis" unicode="&#xcb;" 
 />
    <glyph glyph-name="Igrave" unicode="&#xcc;" 
 />
    <glyph glyph-name="Iacute" unicode="&#xcd;" 
 />
    <glyph glyph-name="Icircumflex" unicode="&#xce;" 
 />
    <glyph glyph-name="Idieresis" unicode="&#xcf;" 
 />
    <glyph glyph-name="Eth" unicode="&#xd0;" 
 />
    <glyph glyph-name="Ntilde" unicode="&#xd1;" 
 />
    <glyph glyph-name="Ograve" unicode="&#xd2;" 
 />
    <glyph glyph-name="Oacute" unicode="&#xd3;" 
 />
    <glyph glyph-name="Ocircumflex" unicode="&#xd4;" 
 />
    <glyph glyph-name="Otilde" unicode="&#xd5;" 
 />
    <glyph glyph-name="Odieresis" unicode="&#xd6;" 
 />
    <glyph glyph-name="multiply" unicode="&#xd7;" 
 />
    <glyph glyph-name="Oslash" unicode="&#xd8;" 
 />
    <glyph glyph-name="Ugrave" unicode="&#xd9;" 
 />
    <glyph glyph-name="Uacute" unicode="&#xda;" 
 />
    <glyph glyph-name="Ucircumflex" unicode="&#xdb;" 
 />
    <glyph glyph-name="Udieresis" unicode="&#xdc;" 
 />
    <glyph glyph-name="Yacute" unicode="&#xdd;" 
 />
    <glyph glyph-name="Thorn" unicode="&#xde;" 
 />
    <glyph glyph-name="germandbls" unicode="&#xdf;" 
 />
    <glyph glyph-name="agrave" unicode="&#xe0;" 
 />
    <glyph glyph-name="aacute" unicode="&#xe1;" 
 />
    <glyph glyph-name="acircumflex" unicode="&#xe2;" 
 />
    <glyph glyph-name="atilde" unicode="&#xe3;" 
 />
    <glyph glyph-name="adieresis" unicode="&#xe4;" 
 />
    <glyph glyph-name="aring" unicode="&#xe5;" 
 />
    <glyph glyph-name="ae" unicode="&#xe6;" 
 />
    <glyph glyph-name="ccedilla" unicode="&#xe7;" 
 />
    <glyph glyph-name="egrave" unicode="&#xe8;" 
 />
    <glyph glyph-name="eacute" unicode="&#xe9;" 
 />
    <glyph glyph-name="ecircumflex" unicode="&#xea;" 
 />
    <glyph glyph-name="edieresis" unicode="&#xeb;" 
 />
    <glyph glyph-name="igrave" unicode="&#xec;" 
 />
    <glyph glyph-name="iacute" unicode="&#xed;" 
 />
    <glyph glyph-name="icircumflex" unicode="&#xee;" 
 />
    <glyph glyph-name="idieresis" unicode="&#xef;" 
 />
    <glyph glyph-name="eth" unicode="&#xf0;" 
 />
    <glyph glyph-name="ntilde" unicode="&#xf1;" 
 />
    <glyph glyph-name="ograve" unicode="&#xf2;" 
 />
    <glyph glyph-name="oacute" unicode="&#xf3;" 
 />
    <glyph glyph-name="ocircumflex" unicode="&#xf4;" 
 />
    <glyph glyph-name="otilde" unicode="&#xf5;" 
 />
    <glyph glyph-name="odieresis" unicode="&#xf6;" 
 />
    <glyph glyph-name="divide" unicode="&#xf7;" 
 />
    <glyph glyph-name="oslash" unicode="&#xf8;" 
 />
    <glyph glyph-name="ugrave" unicode="&#xf9;" 
 />
    <glyph glyph-name="uacute" unicode="&#xfa;" 
 />
    <glyph glyph-name="ucircumflex" unicode="&#xfb;" 
 />
    <glyph glyph-name="udieresis" unicode="&#xfc;" 
 />
    <glyph glyph-name="yacute" unicode="&#xfd;" 
 />
    <glyph glyph-name="thorn" unicode="&#xfe;" 
 />
    <glyph glyph-name="ydieresis" unicode="&#xff;" 
 />
    <glyph glyph-name="OE" unicode="&#x152;" 
 />
    <glyph glyph-name="oe" unicode="&#x153;" 
 />
    <glyph glyph-name="Scaron" unicode="&#x160;" 
 />
    <glyph glyph-name="scaron" unicode="&#x161;" 
 />
    <glyph glyph-name="Ydieresis" unicode="&#x178;" 
 />
    <glyph glyph-name="Zcaron" unicode="&#x17d;" 
 />
    <glyph glyph-name="zcaron" unicode="&#x17e;" 
 />
    <glyph glyph-name="florin" unicode="&#x192;" 
 />
    <glyph glyph-name="circumflex" unicode="&#x2c6;" 
 />
    <glyph glyph-name="tilde" unicode="&#x2dc;" 
 />
    <glyph glyph-name="endash" unicode="&#x2013;" 
 />
    <glyph glyph-name="emdash" unicode="&#x2014;" 
 />
    <glyph glyph-name="quoteleft" unicode="&#x2018;" 
 />
    <glyph glyph-name="quoteright" unicode="&#x2019;" 
 />
    <glyph glyph-name="quotesinglbase" unicode="&#x201a;" 
 />
    <glyph glyph-name="quotedblleft" unicode="&#x201c;" 
 />
    <glyph glyph-name="quotedblright" unicode="&#x201d;" 
 />
    <glyph glyph-name="quotedblbase" unicode="&#x201e;" 
 />
    <glyph glyph-name="dagger" unicode="&#x2020;" 
 />
    <glyph glyph-name="daggerdbl" unicode="&#x2021;" 
 />
    <glyph glyph-name="bullet" unicode="&#x2022;" 
 />
    <glyph glyph-name="ellipsis" unicode="&#x2026;" 
 />
    <glyph glyph-name="perthousand" unicode="&#x2030;" 
 />
    <glyph glyph-name="guilsinglleft" unicode="&#x2039;" 
 />
    <glyph glyph-name="guilsinglright" unicode="&#x203a;" 
 />
    <glyph glyph-name="Euro" unicode="&#x20ac;" 
 />
    <glyph glyph-name="trademark" unicode="&#x2122;" 
 />
    <glyph glyph-name="uni2219" unicode="&#x2219;" 
 />
  </font>
</defs>
</svg>
