<?xml version="1.0" encoding="iso-8859-1"?>
<!-- Generator: Adobe Illustrator 18.0.0, SVG Export Plug-In . SVG Version: 6.00 Build 0)  -->
<!DOCTYPE svg PUBLIC "-//W3C//DTD SVG 1.1//EN" "http://www.w3.org/Graphics/SVG/1.1/DTD/svg11.dtd">
<svg version="1.1" id="Capa_1" xmlns="http://www.w3.org/2000/svg" xmlns:xlink="http://www.w3.org/1999/xlink" x="0px" y="0px"
	 viewBox="0 0 283.723 283.723" style="enable-background:new 0 0 283.723 283.723;" xml:space="preserve">
<g>
	<path d="M267.007,0H159.761C153,0,146.905,4.073,144.318,10.319c-1.984,4.79-2.706,10.969,0.848,14.516
		c28.104,28.048,84.281,84.306,113.58,113.647c3.588,3.593,9.817,2.929,14.658,0.924c6.246-2.587,10.319-8.682,10.319-15.443V16.716
		C283.722,7.484,276.239,0,267.007,0z"/>
	<path d="M139.435,73.21l14.288-14.288l-21.177-21.249L11.919,158.298c-9.066,9.069-9.193,23.717-0.426,32.968l80.49,80.536
		c9.221,9.221,24.223,9.219,33.442,0L245.857,151.37l-67.409-67.639L139.435,73.21z M108.704,246.097L69.767,207.16L131.1,223.7
		L108.704,246.097z M174.022,180.778L62.06,150.585l34.453-34.453l111.963,30.194L174.022,180.778z"/>
	<path d="M4.394,258.116c-5.858,5.857-5.858,15.355,0,21.213c5.858,5.858,15.355,5.858,21.213,0l24.159-24.159L28.59,233.921
		L4.394,258.116z"/>
</g>
<g>
</g>
<g>
</g>
<g>
</g>
<g>
</g>
<g>
</g>
<g>
</g>
<g>
</g>
<g>
</g>
<g>
</g>
<g>
</g>
<g>
</g>
<g>
</g>
<g>
</g>
<g>
</g>
<g>
</g>
</svg>
