<?xml version="1.0" encoding="iso-8859-1"?>
<!-- Generator: Adobe Illustrator 18.0.0, SVG Export Plug-In . SVG Version: 6.00 Build 0)  -->
<!DOCTYPE svg PUBLIC "-//W3C//DTD SVG 1.1//EN" "http://www.w3.org/Graphics/SVG/1.1/DTD/svg11.dtd">
<svg version="1.1" id="Capa_1" xmlns="http://www.w3.org/2000/svg" xmlns:xlink="http://www.w3.org/1999/xlink" x="0px" y="0px"
	 viewBox="0 0 297.111 297.111" style="enable-background:new 0 0 297.111 297.111;" xml:space="preserve">
<path d="M296.366,94.764c-15.98-17.823-33.68-20.928-41.952-21.323l21.514-46.08c0.835-1.789,0.462-3.909-0.934-5.306
	c-1.396-1.396-3.517-1.769-5.306-0.934L223.48,42.694c-0.409-8.3-3.545-25.948-21.321-41.887c-0.89-0.798-2.176-0.972-3.246-0.439
	c-1.07,0.533-1.706,1.665-1.604,2.856c1.245,14.606-8.467,27.85-16.611,36.235c-2.042-2.814-3.931-5.546-5.649-8.172
	c-2.915-4.456-7.684-7.36-12.981-7.906c-5.297-0.545-10.556,1.329-14.322,5.094L84.149,92.073
	c-29.744,29.745-32.948,75.953-9.659,109.273L4.394,271.442c-5.858,5.857-5.858,15.355,0,21.213
	c2.929,2.929,6.768,4.394,10.606,4.394s7.678-1.465,10.606-4.394l70.096-70.096c33.32,23.289,79.528,20.085,109.273-9.659
	l63.597-63.597c3.763-3.763,5.628-9.021,5.083-14.315c-0.545-5.294-3.441-10.074-7.895-12.988c-2.627-1.718-5.36-3.609-8.175-5.651
	c8.379-8.168,21.684-17.985,36.363-16.734c1.191,0.101,2.323-0.535,2.856-1.604C297.338,96.941,297.164,95.654,296.366,94.764z
	 M157.005,118.376c-0.424,1.142-1.292,2.065-2.406,2.558c-1.114,0.493-2.381,0.514-3.511,0.06
	c-4.992-2.004-13.59-6.209-18.512-12.896c-8.8-11.956-4.867-21.964-1.811-26.798c1.226-1.94,3.715-2.654,5.78-1.654
	c4.04,1.957,10.823,5.966,15.531,12.541C160.341,103.731,158.9,113.275,157.005,118.376z M215.749,166.284
	c-4.833,3.056-14.841,6.989-26.798-1.811c-6.688-4.922-10.892-13.52-12.896-18.512c-0.454-1.131-0.433-2.397,0.06-3.511
	c0.493-1.115,1.415-1.982,2.557-2.406c5.101-1.895,14.645-3.336,26.189,4.929c6.575,4.708,10.585,11.491,12.542,15.531
	C218.403,162.569,217.689,165.058,215.749,166.284z"/>
<g>
</g>
<g>
</g>
<g>
</g>
<g>
</g>
<g>
</g>
<g>
</g>
<g>
</g>
<g>
</g>
<g>
</g>
<g>
</g>
<g>
</g>
<g>
</g>
<g>
</g>
<g>
</g>
<g>
</g>
</svg>
