<?xml version="1.0" encoding="iso-8859-1"?>
<!-- Generator: Adobe Illustrator 18.0.0, SVG Export Plug-In . SVG Version: 6.00 Build 0)  -->
<!DOCTYPE svg PUBLIC "-//W3C//DTD SVG 1.1//EN" "http://www.w3.org/Graphics/SVG/1.1/DTD/svg11.dtd">
<svg version="1.1" id="Capa_1" xmlns="http://www.w3.org/2000/svg" xmlns:xlink="http://www.w3.org/1999/xlink" x="0px" y="0px"
	 viewBox="0 0 299.512 299.512" style="enable-background:new 0 0 299.512 299.512;" xml:space="preserve">
<g>
	<path d="M192.521,143.573c19.441-13.859,34.976-40.254,43.057-56.033c2.874-5.612-1.777-12.135-8.019-11.248
		c-8.746,1.243-20.588,3.377-32.674,6.92c1.319,7.52,2.094,15.054,2.094,22.387c0,15.173-1.622,27.832-4.917,38.294
		C192.216,143.784,192.366,143.684,192.521,143.573z"/>
	<path d="M106.646,143.318c-3.176-10.351-4.744-22.821-4.744-37.719c0-7.388,0.787-14.982,2.125-22.559
		c-11.877-3.438-23.473-5.525-32.074-6.747c-6.242-0.887-10.893,5.636-8.019,11.248C71.967,103.225,87.367,129.393,106.646,143.318z
		"/>
	<path d="M149.44,159.501c15.209,0,27.538-14.454,27.538-53.902c0-26.391-12.326-57.283-20.485-74.841
		c-1.392-2.996-4.223-4.494-7.053-4.494c-2.83,0-5.661,1.498-7.053,4.494c-8.159,17.558-20.485,48.45-20.485,74.841
		C121.902,145.047,134.231,159.501,149.44,159.501z"/>
	<path d="M295.82,175.369c-16.701-24.432-87.986-24.09-118.058-9.201c-1.916,0.949-3.67,1.955-5.226,3.019
		c-13.735,9.39-31.824,9.389-45.559,0c-3.326-2.274-7.534-4.288-12.372-6.021c-32.966-11.806-95.42-10.459-110.912,12.203
		c-17.765,25.988,32.962,70.164,58.95,87.93c25.988,17.766,61.458,11.099,79.223-14.889c1.781-2.606,4.734-4.164,7.891-4.164
		c3.156,0,6.109,1.558,7.891,4.164c17.765,25.988,53.235,32.654,79.223,14.889C262.858,245.534,313.585,201.358,295.82,175.369z
		 M124.438,223.014c-3.876,11.224-22.994,14.805-42.701,7.999s-32.54-21.422-28.663-32.645c3.876-11.224,22.994-14.805,42.7-7.999
		C115.481,197.174,128.314,211.79,124.438,223.014z M217.775,231.013c-19.707,6.806-38.824,3.225-42.701-7.999
		c-3.876-11.224,8.957-25.839,28.663-32.645c19.707-6.806,38.824-3.225,42.701,7.999
		C250.314,209.591,237.481,224.207,217.775,231.013z"/>
</g>
<g>
</g>
<g>
</g>
<g>
</g>
<g>
</g>
<g>
</g>
<g>
</g>
<g>
</g>
<g>
</g>
<g>
</g>
<g>
</g>
<g>
</g>
<g>
</g>
<g>
</g>
<g>
</g>
<g>
</g>
</svg>
