<?xml version="1.0" encoding="iso-8859-1"?>
<!-- Generator: Adobe Illustrator 18.0.0, SVG Export Plug-In . SVG Version: 6.00 Build 0)  -->
<!DOCTYPE svg PUBLIC "-//W3C//DTD SVG 1.1//EN" "http://www.w3.org/Graphics/SVG/1.1/DTD/svg11.dtd">
<svg version="1.1" id="Capa_1" xmlns="http://www.w3.org/2000/svg" xmlns:xlink="http://www.w3.org/1999/xlink" x="0px" y="0px"
	 viewBox="0 0 303.855 303.855" style="enable-background:new 0 0 303.855 303.855;" xml:space="preserve">
<path d="M302.844,112.631c-0.851-3.228-4-5.294-7.301-4.799c-2.894,0.434-5.802,0.629-8.721,0.629
	c2.688-13.116,1.96-25.519-3.375-34.454c-1.711-2.865-5.31-3.979-8.345-2.588C240.35,87.34,192.121,65,162.344,88.805
	c-3.898,3.116-7.354,6.239-10.416,9.357c-3.063-3.119-6.518-6.241-10.416-9.357C111.734,65,63.504,87.34,28.753,71.418
	c-3.034-1.39-6.634-0.277-8.345,2.588c-5.335,8.935-6.063,21.338-3.375,34.454c-2.919,0-5.827-0.194-8.721-0.629
	c-3.301-0.495-6.451,1.571-7.301,4.799c-7.641,29.002,29.406,75.096,65.834,82.736c19.38,4.065,45.935-1.564,66.176-12.446
	c2.828,11.396,7.025,28.574,10.751,43.72c0.923,3.752,4.287,6.39,8.151,6.391c3.864,0.002,7.237-2.632,8.16-6.384
	c3.726-15.147,7.924-32.33,10.752-43.727c20.242,10.882,46.796,16.51,66.176,12.446
	C273.438,187.726,310.486,141.633,302.844,112.631z M121.598,154.441c-0.685,1.773-2.058,3.192-3.806,3.938
	c-7.715,3.295-21.835,8.14-34.639,6.193c-22.892-3.48-29.591-18.855-31.551-27.556c-0.787-3.492,1.17-7.024,4.551-8.199
	c6.614-2.298,18.516-5.356,30.96-3.297c21.847,3.616,30.783,15.731,34.319,23.446C122.223,150.694,122.283,152.668,121.598,154.441z
	 M252.253,137.016c-1.96,8.701-8.66,24.076-31.551,27.556c-12.804,1.947-26.924-2.898-34.639-6.193
	c-1.748-0.746-3.121-2.166-3.806-3.938c-0.685-1.773-0.625-3.747,0.167-5.474c3.536-7.715,12.472-19.83,34.319-23.446
	c12.443-2.059,24.346,1,30.96,3.297C251.084,129.992,253.04,133.524,252.253,137.016z"/>
<g>
</g>
<g>
</g>
<g>
</g>
<g>
</g>
<g>
</g>
<g>
</g>
<g>
</g>
<g>
</g>
<g>
</g>
<g>
</g>
<g>
</g>
<g>
</g>
<g>
</g>
<g>
</g>
<g>
</g>
</svg>
