<?xml version="1.0" encoding="iso-8859-1"?>
<!-- Generator: Adobe Illustrator 18.0.0, SVG Export Plug-In . SVG Version: 6.00 Build 0)  -->
<!DOCTYPE svg PUBLIC "-//W3C//DTD SVG 1.1//EN" "http://www.w3.org/Graphics/SVG/1.1/DTD/svg11.dtd">
<svg version="1.1" id="Capa_1" xmlns="http://www.w3.org/2000/svg" xmlns:xlink="http://www.w3.org/1999/xlink" x="0px" y="0px"
	 viewBox="0 0 311 311" style="enable-background:new 0 0 311 311;" xml:space="preserve">
<path d="M155.5,0C69.757,0,0,69.757,0,155.5S69.757,311,155.5,311S311,241.243,311,155.5S241.243,0,155.5,0z M280.1,140.5h-27.27
	c-6.476-42.37-39.959-75.853-82.33-82.329V30.9C227.735,37.748,273.252,83.265,280.1,140.5z M140.5,203.713
	c-15.815-4.915-28.298-17.398-33.213-33.213H140.5V203.713z M140.5,140.5h-33.213c4.915-15.815,17.398-28.298,33.213-33.213V140.5z
	 M170.5,170.5h33.213c-4.915,15.816-17.398,28.298-33.213,33.213V170.5z M170.5,140.5v-33.213
	c15.815,4.915,28.298,17.398,33.213,33.213H170.5z M140.5,30.9v27.271C98.13,64.647,64.647,98.13,58.17,140.5H30.9
	C37.748,83.265,83.265,37.748,140.5,30.9z M30.9,170.5h27.27c6.476,42.37,39.959,75.853,82.33,82.329V280.1
	C83.265,273.252,37.748,227.735,30.9,170.5z M170.5,280.1v-27.271c42.37-6.476,75.853-39.959,82.33-82.329h27.27
	C273.252,227.735,227.735,273.252,170.5,280.1z"/>
<g>
</g>
<g>
</g>
<g>
</g>
<g>
</g>
<g>
</g>
<g>
</g>
<g>
</g>
<g>
</g>
<g>
</g>
<g>
</g>
<g>
</g>
<g>
</g>
<g>
</g>
<g>
</g>
<g>
</g>
</svg>
