<?xml version="1.0" encoding="iso-8859-1"?>
<!-- Generator: Adobe Illustrator 18.0.0, SVG Export Plug-In . SVG Version: 6.00 Build 0)  -->
<!DOCTYPE svg PUBLIC "-//W3C//DTD SVG 1.1//EN" "http://www.w3.org/Graphics/SVG/1.1/DTD/svg11.dtd">
<svg version="1.1" id="Capa_1" xmlns="http://www.w3.org/2000/svg" xmlns:xlink="http://www.w3.org/1999/xlink" x="0px" y="0px"
	 viewBox="0 0 299.512 299.512" style="enable-background:new 0 0 299.512 299.512;" xml:space="preserve">
<g>
	<path d="M295.82,199.939c-17.766-25.988-97.296-23.948-123.285-6.182c-2.468,1.687-5.081,3.059-7.779,4.14v-9.134l24.25-28.989
		V98.341l-31.45,39.199c-1.898,2.366-4.767,3.742-7.8,3.742s-5.901-1.376-7.8-3.742l-31.45-39.199v55.303
		c0,3.96,1.392,7.794,3.933,10.832l20.317,24.288v9.134c-2.699-1.081-5.311-2.453-7.78-4.14v0
		c-25.988-17.766-105.519-19.806-123.285,6.182c-17.765,25.988,32.962,70.164,58.95,87.93
		c25.988,17.765,61.458,11.099,79.223-14.889c1.781-2.606,4.734-4.164,7.891-4.164c3.156,0,6.109,1.558,7.891,4.164
		c17.765,25.988,53.235,32.654,79.223,14.889C262.858,270.104,313.586,225.928,295.82,199.939z M121.198,248.499
		c-4.164,10.204-22.065,12.55-39.982,5.238c-17.917-7.311-29.066-21.511-24.902-31.716c4.164-10.205,22.065-12.55,39.982-5.238
		C114.213,224.095,125.362,238.294,121.198,248.499z M218.296,253.737c-17.917,7.312-35.818,4.966-39.982-5.238
		c-4.164-10.205,6.985-24.404,24.902-31.716c17.917-7.312,35.818-4.966,39.982,5.238
		C247.363,232.226,236.214,246.426,218.296,253.737z"/>
	<path d="M189.006,66.382V40.944c0-21.677-17.573-39.25-39.25-39.25s-39.25,17.573-39.25,39.25v25.438l39.25,48.92L189.006,66.382z"
		/>
</g>
<g>
</g>
<g>
</g>
<g>
</g>
<g>
</g>
<g>
</g>
<g>
</g>
<g>
</g>
<g>
</g>
<g>
</g>
<g>
</g>
<g>
</g>
<g>
</g>
<g>
</g>
<g>
</g>
<g>
</g>
</svg>
