<?xml version="1.0" encoding="iso-8859-1"?>
<!-- Generator: Adobe Illustrator 18.0.0, SVG Export Plug-In . SVG Version: 6.00 Build 0)  -->
<!DOCTYPE svg PUBLIC "-//W3C//DTD SVG 1.1//EN" "http://www.w3.org/Graphics/SVG/1.1/DTD/svg11.dtd">
<svg version="1.1" id="Capa_1" xmlns="http://www.w3.org/2000/svg" xmlns:xlink="http://www.w3.org/1999/xlink" x="0px" y="0px"
	 viewBox="0 0 324.743 324.743" style="enable-background:new 0 0 324.743 324.743;" xml:space="preserve">
<g>
	<path d="M119.862,102.975h-38.81V68.309c0-4.107-1.685-8.035-4.66-10.867L54.84,36.935c-6.001-5.71-15.495-5.474-21.207,0.527
		c-5.71,6.002-5.475,15.496,0.527,21.207l16.892,16.072v28.233h-38.81C5.481,102.975,0,108.456,0,115.217v9.745
		c0,6.761,5.481,12.243,12.243,12.243h107.619c6.762,0,12.243-5.481,12.243-12.243v-9.745
		C132.105,108.456,126.624,102.975,119.862,102.975z"/>
	<path d="M112.255,150.66H19.85c-4.801,0-8.609,4.047-8.316,8.839l7.583,124.306c0.268,4.396,3.912,7.824,8.316,7.824h77.237
		c4.404,0,8.048-3.428,8.316-7.824l7.583-124.306C120.863,154.706,117.056,150.66,112.255,150.66z M66.053,245.947
		c-16.062,0-29.082-16.586-29.082-37.047s13.021-37.047,29.082-37.047s29.082,16.586,29.082,37.047S82.114,245.947,66.053,245.947z"
		/>
	<path d="M290.397,72.741c-3.703-15.566-17.727-27.181-34.41-27.181c-7.915,0-15.351,2.58-21.365,7.153
		c-5.581-2.27-11.591-3.465-17.703-3.465c-19.974,0-37.192,12.395-43.96,30.266c-18.258,5.205-31.663,22.037-31.663,41.942
		c0,9.154,2.841,17.653,7.679,24.675c-0.009,0.28-0.014,0.56,0.01,0.845l11.217,135.771c0.427,5.165,6.224,9.193,13.231,9.193
		h113.716c7.008,0,12.805-4.028,13.231-9.193l10.89-131.82c8.326-8.487,13.473-20.103,13.473-32.903
		C324.743,96.489,310.188,78.288,290.397,72.741z"/>
</g>
<g>
</g>
<g>
</g>
<g>
</g>
<g>
</g>
<g>
</g>
<g>
</g>
<g>
</g>
<g>
</g>
<g>
</g>
<g>
</g>
<g>
</g>
<g>
</g>
<g>
</g>
<g>
</g>
<g>
</g>
</svg>
