<?xml version="1.0" encoding="iso-8859-1"?>
<!-- Generator: Adobe Illustrator 18.0.0, SVG Export Plug-In . SVG Version: 6.00 Build 0)  -->
<!DOCTYPE svg PUBLIC "-//W3C//DTD SVG 1.1//EN" "http://www.w3.org/Graphics/SVG/1.1/DTD/svg11.dtd">
<svg version="1.1" id="Capa_1" xmlns="http://www.w3.org/2000/svg" xmlns:xlink="http://www.w3.org/1999/xlink" x="0px" y="0px"
	 viewBox="0 0 298.71 298.71" style="enable-background:new 0 0 298.71 298.71;" xml:space="preserve">
<path d="M288.647,105.869c-0.901-2.217-2.779-3.89-5.085-4.53c-2.306-0.64-4.778-0.174-6.693,1.261
	c-13.695,10.259-38.293,17.41-67.19,21.464l-13.139-21.103c-1.409-2.262-3.885-3.637-6.55-3.637c-2.665,0-5.141,1.375-6.549,3.637
	l-4.582,7.358l0.195-0.385l-23.149-37.179c-1.409-2.262-3.885-3.637-6.55-3.637c-2.665,0-5.141,1.375-6.55,3.637l-23.149,37.179
	l0.195,0.385l-4.581-7.358c-1.409-2.262-3.885-3.637-6.55-3.637c-2.665,0-5.141,1.375-6.55,3.637l-13.139,21.103
	c-28.897-4.055-53.495-11.205-67.19-21.464c-1.915-1.434-4.386-1.899-6.691-1.259c-2.305,0.64-4.187,2.312-5.088,4.528
	c-11.95,29.411-35.019,113.177,84.378,123.441c12.073,1.038,26.211-0.716,38.062-6.155c10.685-4.903,23.01-4.909,33.695-0.004
	c11.853,5.442,25.994,7.197,38.071,6.159C323.666,219.046,300.597,135.279,288.647,105.869z M113.377,184.76
	c-0.78,1.617-2.18,2.85-3.883,3.421c-7.516,2.518-21.181,6.012-33.092,3.209c-21.296-5.012-26.44-20-27.627-28.342
	c-0.477-3.348,1.634-6.527,4.907-7.377c6.403-1.663,17.844-3.642,29.407-0.76c20.301,5.06,27.799,17.147,30.545,24.681
	C114.249,181.279,114.156,183.143,113.377,184.76z M249.936,163.047c-1.187,8.343-6.332,23.33-27.627,28.342
	c-11.911,2.803-25.576-0.69-33.092-3.209c-1.703-0.571-3.103-1.803-3.883-3.421c-0.78-1.618-0.873-3.481-0.258-5.168
	c2.746-7.534,10.244-19.621,30.545-24.681c11.563-2.882,23.005-0.903,29.407,0.76C248.302,156.521,250.413,159.699,249.936,163.047z
	"/>
<g>
</g>
<g>
</g>
<g>
</g>
<g>
</g>
<g>
</g>
<g>
</g>
<g>
</g>
<g>
</g>
<g>
</g>
<g>
</g>
<g>
</g>
<g>
</g>
<g>
</g>
<g>
</g>
<g>
</g>
</svg>
