<?xml version="1.0" encoding="iso-8859-1"?>
<!-- Generator: Adobe Illustrator 18.0.0, SVG Export Plug-In . SVG Version: 6.00 Build 0)  -->
<!DOCTYPE svg PUBLIC "-//W3C//DTD SVG 1.1//EN" "http://www.w3.org/Graphics/SVG/1.1/DTD/svg11.dtd">
<svg version="1.1" id="Capa_1" xmlns="http://www.w3.org/2000/svg" xmlns:xlink="http://www.w3.org/1999/xlink" x="0px" y="0px"
	 viewBox="0 0 309.161 309.161" style="enable-background:new 0 0 309.161 309.161;" xml:space="preserve">
<g>
	<path d="M217.182,273.982L217.182,273.982l-25.438-66.983l-19.52-51.399c-2.766-7.28-9.855-12.172-17.644-12.172
		s-14.879,4.892-17.645,12.173l-13.331,35.101l-0.969,2.551l-5.221,13.746l-24.983,65.784l-1.089,2.868
		c-2.887,7.6-1.854,16.131,2.763,22.824c4.617,6.691,12.227,10.686,20.355,10.686h80.235c8.129,0,15.738-3.995,20.356-10.688
		c4.615-6.692,5.648-15.224,2.762-22.822L217.182,273.982z"/>
	<path d="M154.581,0C78.705,0,16.976,61.729,16.976,137.605c0,48.713,25.456,91.578,63.754,116.035l18.861-49.859
		c-4.686,1.413-8.866,4.536-11.507,9.11c-1.329,2.301-2.135,4.757-2.477,7.237c-4.906-4.108-9.441-8.643-13.549-13.549
		c2.479-0.342,4.936-1.149,7.237-2.477c9.539-5.508,12.808-17.706,7.3-27.245c-5.508-9.539-17.706-12.808-27.245-7.3
		c-2.322,1.34-4.264,3.082-5.807,5.08c-2.193-5.965-3.868-12.179-4.979-18.583c2.335,0.959,4.888,1.496,7.568,1.496
		c11.015,0,19.945-8.93,19.945-19.945c0-11.015-8.929-19.945-19.945-19.945c-2.68,0-5.233,0.537-7.568,1.496
		c1.111-6.404,2.786-12.617,4.979-18.583c1.542,1.998,3.485,3.74,5.806,5.08c9.539,5.508,21.737,2.239,27.245-7.3
		c5.508-9.539,2.239-21.737-7.3-27.245c-2.301-1.328-4.758-2.135-7.237-2.477c4.108-4.906,8.643-9.441,13.549-13.549
		c0.343,2.479,1.149,4.936,2.477,7.237c5.508,9.539,17.706,12.808,27.245,7.3c9.54-5.508,12.808-17.706,7.3-27.245
		c-1.34-2.321-3.082-4.264-5.08-5.807c5.965-2.193,12.179-3.868,18.583-4.979c-0.959,2.335-1.496,4.888-1.496,7.568
		c0,11.015,8.93,19.945,19.945,19.945s19.945-8.93,19.945-19.945c0-2.68-0.537-5.233-1.496-7.568
		c6.404,1.111,12.617,2.786,18.583,4.979c-1.998,1.543-3.74,3.485-5.08,5.807c-5.508,9.539-2.239,21.737,7.3,27.245
		c9.539,5.508,21.737,2.239,27.245-7.3c1.328-2.301,2.135-4.758,2.477-7.237c4.906,4.108,9.442,8.643,13.549,13.549
		c-2.479,0.342-4.936,1.149-7.237,2.477c-9.539,5.508-12.808,17.706-7.3,27.245c5.508,9.539,17.706,12.808,27.245,7.3
		c2.322-1.34,4.264-3.082,5.807-5.08c2.193,5.965,3.868,12.179,4.979,18.583c-2.335-0.959-4.888-1.496-7.568-1.496
		c-11.015,0-19.945,8.93-19.945,19.945c0,11.015,8.93,19.945,19.945,19.945c2.68,0,5.233-0.537,7.568-1.496
		c-1.111,6.404-2.786,12.617-4.979,18.583c-1.543-1.998-3.485-3.74-5.807-5.08c-9.539-5.508-21.737-2.239-27.245,7.3
		c-5.508,9.539-2.239,21.737,7.3,27.245c2.301,1.328,4.757,2.135,7.237,2.477c-4.108,4.906-8.643,9.442-13.549,13.549
		c-0.343-2.479-1.149-4.936-2.477-7.237c-2.576-4.462-6.617-7.539-11.162-8.994l18.755,49.577
		c38.162-24.483,63.516-67.26,63.516-115.869C292.186,61.729,230.456,0,154.581,0z"/>
</g>
<g>
</g>
<g>
</g>
<g>
</g>
<g>
</g>
<g>
</g>
<g>
</g>
<g>
</g>
<g>
</g>
<g>
</g>
<g>
</g>
<g>
</g>
<g>
</g>
<g>
</g>
<g>
</g>
<g>
</g>
</svg>
