<?xml version="1.0" encoding="iso-8859-1"?>
<!-- Generator: Adobe Illustrator 18.0.0, SVG Export Plug-In . SVG Version: 6.00 Build 0)  -->
<!DOCTYPE svg PUBLIC "-//W3C//DTD SVG 1.1//EN" "http://www.w3.org/Graphics/SVG/1.1/DTD/svg11.dtd">
<svg version="1.1" id="Capa_1" xmlns="http://www.w3.org/2000/svg" xmlns:xlink="http://www.w3.org/1999/xlink" x="0px" y="0px"
	 viewBox="0 0 289.259 289.259" style="enable-background:new 0 0 289.259 289.259;" xml:space="preserve">
<path d="M271.716,17.541c-19.65-19.65-49.555-22.786-72.486-9.42l-9.66,88.077c-0.278,2.536-1.413,4.902-3.217,6.706l-22.032,22.032
	c-0.512,0.512-1.29,0.644-1.943,0.332c-0.652-0.313-1.036-1.004-0.957-1.723l9.906-90.322L65.399,139.151
	c-4.273,4.273-6.908,9.913-7.444,15.932l-5.375,60.381L4.394,263.651c-5.858,5.857-5.858,15.355,0,21.213
	c2.929,2.929,6.768,4.393,10.606,4.393c3.839,0,7.678-1.465,10.606-4.393l48.187-48.187l60.38-5.375
	c6.02-0.536,11.659-3.171,15.932-7.444l46.36-46.36l-90.322,9.906c-0.719,0.079-1.41-0.305-1.723-0.957
	c-0.313-0.652-0.18-1.431,0.332-1.943l22.032-22.032c1.804-1.804,4.17-2.939,6.706-3.217l91.223-10.005l47.002-47.002
	C295.107,78.857,295.107,40.932,271.716,17.541z"/>
<g>
</g>
<g>
</g>
<g>
</g>
<g>
</g>
<g>
</g>
<g>
</g>
<g>
</g>
<g>
</g>
<g>
</g>
<g>
</g>
<g>
</g>
<g>
</g>
<g>
</g>
<g>
</g>
<g>
</g>
</svg>
