<?xml version="1.0" encoding="iso-8859-1"?>
<!-- Generator: Adobe Illustrator 18.0.0, SVG Export Plug-In . SVG Version: 6.00 Build 0)  -->
<!DOCTYPE svg PUBLIC "-//W3C//DTD SVG 1.1//EN" "http://www.w3.org/Graphics/SVG/1.1/DTD/svg11.dtd">
<svg version="1.1" id="Capa_1" xmlns="http://www.w3.org/2000/svg" xmlns:xlink="http://www.w3.org/1999/xlink" x="0px" y="0px"
	 viewBox="0 0 297.15 297.15" style="enable-background:new 0 0 297.15 297.15;" xml:space="preserve">
<g>
	<path d="M282.15,263.857h-2.248c1.47-6.434,2.248-13.065,2.248-19.846c0-16.519-4.552-32.173-12.691-46.184
		c-3.94-6.783-9.963-11.331-16.697-12.608c-6.734-1.277-13.603,0.829-19.048,5.829c-5.057,4.643-10.754,8.622-16.939,11.816
		l-5.561-5.561l9.681-9.681c5.858-5.857,5.858-15.354,0-21.213c-5.857-5.859-15.355-5.857-21.213,0l-28.75,28.749
		c-4.145,4.144-5.342,10.107-3.622,15.317c-26.039-4.413-47.63-21.522-57.879-44.592c-6.163-13.871-19.85-19.642-31.873-13.732
		c-5.324,2.617-25.578,17.418-32.644,23.485C24.876,192.844,15,218.085,15,244.011c0,6.78,0.773,13.412,2.24,19.846H15
		c-8.284,0-15,6.716-15,15s6.716,15,15,15h267.15c8.284,0,15-6.716,15-15S290.435,263.857,282.15,263.857z"/>
	<path d="M74.914,133.849V18.293c0-8.284-6.716-15-15-15c-8.284,0-15,6.716-15,15v134.463c8.953-6.721,19.786-14.339,24.703-16.756
		C71.352,135.147,73.121,134.44,74.914,133.849z"/>
</g>
<g>
</g>
<g>
</g>
<g>
</g>
<g>
</g>
<g>
</g>
<g>
</g>
<g>
</g>
<g>
</g>
<g>
</g>
<g>
</g>
<g>
</g>
<g>
</g>
<g>
</g>
<g>
</g>
<g>
</g>
</svg>
