<?xml version="1.0" encoding="iso-8859-1"?>
<!-- Generator: Adobe Illustrator 18.0.0, SVG Export Plug-In . SVG Version: 6.00 Build 0)  -->
<!DOCTYPE svg PUBLIC "-//W3C//DTD SVG 1.1//EN" "http://www.w3.org/Graphics/SVG/1.1/DTD/svg11.dtd">
<svg version="1.1" id="Capa_1" xmlns="http://www.w3.org/2000/svg" xmlns:xlink="http://www.w3.org/1999/xlink" x="0px" y="0px"
	 viewBox="0 0 305.11 305.11" style="enable-background:new 0 0 305.11 305.11;" xml:space="preserve">
<g>
	<path d="M95.411,44.489l42.144,4.622v19.36c4.943-0.574,9.948-0.872,15-0.872s10.057,0.298,15,0.872V52.4l20.528,2.251
		c3.015,0.318,6.245,0.157,9.361-0.588c14.72-3.52,23.799-18.307,20.279-33.027c-3.52-14.72-18.307-23.799-33.027-20.279
		L94.026,22.441c-4.464,1.077-8.007,4.853-8.537,9.681C84.814,38.277,89.257,43.814,95.411,44.489z"/>
	<path d="M152.555,85.598c-5.089,0-10.095,0.354-15,1.023v0.016c-23.626,3.21-45.453,13.976-62.602,31.125
		c-20.728,20.728-32.144,48.288-32.144,77.602c0,29.314,11.415,56.874,32.144,77.602c20.728,20.728,48.288,32.144,77.602,32.144
		s56.874-11.416,77.602-32.144c20.728-20.728,32.144-48.288,32.144-77.602c0-29.314-11.415-56.874-32.144-77.602
		c-17.149-17.149-38.976-27.916-62.602-31.125v-0.016C162.65,85.952,157.644,85.598,152.555,85.598z M90.898,154.921l25.444,25.444
		H80.339C82.247,171.132,85.891,162.539,90.898,154.921z M80.339,210.365h36.003l-25.443,25.443
		C85.891,228.19,82.247,219.597,80.339,210.365z M137.555,267.58c-9.232-1.908-17.825-5.552-25.443-10.559l25.443-25.443V267.58z
		 M137.555,159.152l-25.444-25.444c7.618-5.007,16.211-8.651,25.444-10.559V159.152z M167.555,267.58v-36.002l25.443,25.443
		C185.38,262.028,176.787,265.672,167.555,267.58z M214.211,235.808l-25.443-25.443h36.003
		C222.863,219.597,219.219,228.19,214.211,235.808z M224.771,180.365h-36.003l25.444-25.444
		C219.219,162.539,222.863,171.132,224.771,180.365z M192.999,133.708l-25.444,25.444v-36.003
		C176.787,125.057,185.381,128.701,192.999,133.708z"/>
</g>
<g>
</g>
<g>
</g>
<g>
</g>
<g>
</g>
<g>
</g>
<g>
</g>
<g>
</g>
<g>
</g>
<g>
</g>
<g>
</g>
<g>
</g>
<g>
</g>
<g>
</g>
<g>
</g>
<g>
</g>
</svg>
